<svg id="Capa_1" data-name="Capa 1" xmlns="http://www.w3.org/2000/svg" viewBox="0 0 328.98 320.93"><defs><style>.cls-1{fill:#fce5ef;}.cls-2{fill:#fdbe4c;}.cls-3,.cls-7{fill:#fff;}.cls-4{fill:#f09ac2;}.cls-5{fill:#6fceeb;}.cls-6{fill:none;stroke-linecap:round;stroke-linejoin:round;stroke-width:0.86px;stroke-dasharray:4.08 2.58;}.cls-6,.cls-7{stroke:#a2a39e;}.cls-7{stroke-miterlimit:10;stroke-width:0.84px;}.cls-8{fill:#4c2f1a;}.cls-9{fill:#736e6a;}.cls-10{fill:#c98963;}.cls-11{fill:#310000;}.cls-12{fill:#c68963;}.cls-13{fill:#96674a;}.cls-14{fill:#d987b9;}</style></defs><title>features-2</title><path class="cls-1" d="M343.88,244.06c-6.25-12.34-21.68-14.67-25.35-28.71-4.56-17.45,7.66-37.49.35-54.42-20.71-47.94-76.78-74-136.63-64.58C136.83,103.54,89,159.87,94.1,210.07c1.76,17.1,11.52,32,14.2,48.79,2.75,17.23-5.43,33.84-2.74,50.94,6.8,43.36,67.19,48.68,101.05,46,55.19-4.43,106-17.34,132.61-72.3,4.35-9,7.68-18.77,7.26-28.75A25.42,25.42,0,0,0,343.88,244.06Z" transform="translate(-37.61 -64.86)"/><circle class="cls-2" cx="310.28" cy="88.34" r="18.7"/><path class="cls-3" d="M349.06,144.24c.67-.12,1-1.25.79-2.51s-1-2.2-1.62-2.08-1,1.25-.8,2.51S348.39,144.36,349.06,144.24Z" transform="translate(-37.61 -64.86)"/><path class="cls-3" d="M355.11,137.35a0,0,0,0,0-.07,0l-.31.23-.85.71a13,13,0,0,0-1.2,1.23c-.11.13-.22.26-.32.4l-.16.22-.05.06,0,.06-.08.11a9.8,9.8,0,0,0-.6,1,11.81,11.81,0,0,0-.5,1.19c-.07.22-.13.44-.19.66,0,0,0,.08,0,.12-.14.56-.9,2.91-3.28.86a15.25,15.25,0,0,0-1.37-1.68c-.69-.83-1.49-1.59-2.23-2.34a34.14,34.14,0,0,0-2.9-2.39.77.77,0,0,0-.28-.12c.35.36,2.44,2.67,4,4.3,1,1.31,3.15,4,3.32,4.23h0v0a1.35,1.35,0,0,0,.12.12l.16.24a4,4,0,0,1,.44.64l0,0a2.46,2.46,0,0,1,.16.58,2.29,2.29,0,0,1,0,.69s0,.06,0,.09v0h0v.05a.29.29,0,0,0,0,.09l0,.09a1.82,1.82,0,0,1-.13.37,3,3,0,0,1-.18.36c-.07.12-.15.24-.23.35s-.38.47-.58.73a5.93,5.93,0,0,0-.61.83,3.75,3.75,0,0,0-.25.49l0,.14,0,.06v0h0v0l0,.13a.57.57,0,0,0,0,.14l-.06.27a2.33,2.33,0,0,0-.05.28c0,.09,0,.18,0,.27l0,.14v.14a10.85,10.85,0,0,0,0,1.14,19.15,19.15,0,0,0,.21,2.27c.11.76.25,1.5.41,2.23s.37,1.44.58,2.12l.27.8c-.67.94-1.35,1.86-1.95,2.84-.3.49-1.61,2.4-1.39,2.74.17-.13.71-1.08.93-1.34.37-.44.75-.87,1.11-1.33.53-.68,1.09-1.33,1.64-2,0,.06.05.13.08.19.23.61.47,1.17.7,1.69s.45,1,.65,1.4.39.77.55,1.06.28.51.37.67l.14.23h0a0,0,0,0,0,.05,0,0,0,0,0,0,0-.06l-.08-.26-.23-.72c-.21-.63-.5-1.52-.84-2.58-.18-.54-.36-1.11-.55-1.73q-.11-.33-.21-.69l.66-.82.21-.28L350,161c.15-.19.29-.39.44-.59s.29-.4.43-.6l.21-.31.06-.08,0,0,0,0h0l.11-.17a9.89,9.89,0,0,0,.74-1.45l.07-.19.07-.19c.05-.13.1-.26.14-.39l.12-.37v0h0v0l0-.05,0-.11,0-.11s0,0,0,0v-.05a8.13,8.13,0,0,0,.13-.84c0-.14,0-.28,0-.42v-.21a1.62,1.62,0,0,1,0-.22v-.21a1.7,1.7,0,0,0,0-.22v-.21l0-.2v-.08h0v-.14s0-.08,0-.12l0-.11a2.83,2.83,0,0,0-.13-.44,5.57,5.57,0,0,0-.35-.78c-.12-.25-.25-.49-.37-.72l-.08-.17-.08-.18,0-.08,0,0s0,0,0,0l0-.1,0,0h0v0a2,2,0,0,1-.11-.68,5.84,5.84,0,0,1,.28-1.47l.05-.19.05-.2a1.55,1.55,0,0,1,0-.21v-.1l0-.09v-.63c0-.07,0-.13,0-.2v-.2l0-.2a2.7,2.7,0,0,0-.08-.39c0-.13-.07-.26-.11-.38l0-.09,0-.09,0-.09c-.52-1.92.75-4.78.75-4.78l.07-.11,0-.06,0-.06.14-.21c.1-.15.2-.28.3-.41s.2-.25.3-.37a2.09,2.09,0,0,1,.14-.17l.15-.16.13-.15.14-.15.26-.26q.51-.49.81-.75l.29-.25S355.12,137.37,355.11,137.35Z" transform="translate(-37.61 -64.86)"/><circle class="cls-4" cx="137.19" cy="75.91" r="18.7"/><path class="cls-3" d="M177.78,132.25c.7-.15,1-1.34.76-2.65s-1.07-2.27-1.76-2.13-1,1.34-.76,2.66S177.09,132.4,177.78,132.25Z" transform="translate(-37.61 -64.86)"/><path class="cls-3" d="M180,124.58c-.66,1.9.95,3.85.17,5.79-.19.46-.61.67-.91,1s-.65,1.29-1.51,1.37-1.86-.9-2.41-1.47l-.12-.16a9.09,9.09,0,0,0-4-3.27,3.81,3.81,0,0,0-.9-.19,2.43,2.43,0,0,0-.78.06,1.5,1.5,0,0,0-.92.58v0a2.91,2.91,0,0,1,2.46-.11,10.65,10.65,0,0,1,3.67,3l.16.18a11.4,11.4,0,0,1,2.1,5.07h0v0h0l0,.09a.19.19,0,0,1,0,.08s0,0,0,.08l0,.08a1.4,1.4,0,0,1-.15.3,2.42,2.42,0,0,1-.48.54c-.19.16-.41.32-.63.51s-.22.2-.32.31a1.29,1.29,0,0,0-.16.17l-.07.09,0,.05h0v0l0,0-.11.18-.06.09-.06.1-.12.2,0,0,0,.05,0,.1a1.89,1.89,0,0,0-.09.21l-.09.21,0,.1,0,.11-.07.22a6.71,6.71,0,0,0-.19.89,3.44,3.44,0,0,0-.05.45s0,.07,0,.11v.34c0,.15,0,.3,0,.44s0,.15,0,.22l0,.22v.11l0,.1,0,.22c0,.07,0,.14,0,.2s0,.14,0,.21a9.66,9.66,0,0,0,.49,1.52c0,.05,0,.11.07.17l.07.17.15.33.15.31.15.29c.19.39.39.74.56,1s.33.57.46.78l.2.33c.35.8.68,1.58.87,2l0,.13,0,.14,0,.16,0,.15a.77.77,0,0,0,0,.15l0,.29,0,.29a2.72,2.72,0,0,0,0,.28v.27a2.44,2.44,0,0,1,0,.27l0,.25a9.91,9.91,0,0,0,.31,1.69c0,.12.07.22.1.33l.09.28.15.43.14.36a.05.05,0,0,0,.05,0s.05,0,0,0l-.07-.38,0-.21c0-.07,0-.15,0-.24s0-.19,0-.29,0-.21,0-.32-.06-.48-.07-.76c0-.07,0-.14,0-.21v-.67a9,9,0,0,1,.09-1l0-.26,0-.27s0,0,0-.07l0-.06,0-.14,0-.13,0-.15a22.51,22.51,0,0,1,.81-2.39c.08-.21.17-.43.26-.64s.17-.44.26-.67l.13-.34.13-.34.13-.36.12-.35.06-.18,0-.09,0-.09.12-.36c.07-.24.15-.49.22-.75a8.3,8.3,0,0,0,.3-1.62,1.41,1.41,0,0,0,0-.21v-.26h0v-.15a1.41,1.41,0,0,0,0-.2c0-.27,0-.54,0-.82l0-.21,0-.2c0-.07,0-.15,0-.22s0-.15,0-.21l-.05-.2-.06-.21-.06-.2-.07-.19c-.18-.52-.38-1-.52-1.49a4.61,4.61,0,0,1-.15-.72v-.18a.81.81,0,0,1,0-.16V137h0v-.09c0-.23.1-.47.17-.72a5.59,5.59,0,0,0,.15-2.23,7.53,7.53,0,0,1-.26-1.48,2.39,2.39,0,0,1,.53-1.18,4.59,4.59,0,0,0,.53-3.46c0-.09,0-.18-.05-.27l-.11-.52-.05-.25,0-.13,0-.12a5.37,5.37,0,0,1-.11-1.64,1.47,1.47,0,0,1,.24-.71,4.2,4.2,0,0,1,.42-.47l0,0A1.47,1.47,0,0,0,180,124.58Z" transform="translate(-37.61 -64.86)"/><circle class="cls-5" cx="74.55" cy="20.92" r="18.7"/><path class="cls-3" d="M115.28,80.49V72.33a.28.28,0,0,0,.15-.24.26.26,0,0,0-.15-.24v0h-2.63v0a.26.26,0,0,0-.15.24.28.28,0,0,0,.15.24v8.16a.28.28,0,0,0-.15.24.28.28,0,0,0,.15.25v0h2.63v0a.28.28,0,0,0,.15-.25A.28.28,0,0,0,115.28,80.49Z" transform="translate(-37.61 -64.86)"/><path class="cls-3" d="M115.28,90.09V81.92a.26.26,0,0,0,.15-.24.27.27,0,0,0-.15-.24v0h-2.63v0a.27.27,0,0,0-.15.24.26.26,0,0,0,.15.24v8.17a.26.26,0,0,0-.15.24.28.28,0,0,0,.15.24v0h2.63v0a.28.28,0,0,0,.15-.24A.26.26,0,0,0,115.28,90.09Z" transform="translate(-37.61 -64.86)"/><path class="cls-3" d="M115.28,99.74V91.58a.28.28,0,0,0,.15-.25.28.28,0,0,0-.15-.24v0h-2.63v0a.28.28,0,0,0-.15.24.28.28,0,0,0,.15.25v8.16a.27.27,0,0,0-.15.24.26.26,0,0,0,.15.24v0h2.63v0a.26.26,0,0,0,.15-.24A.27.27,0,0,0,115.28,99.74Z" transform="translate(-37.61 -64.86)"/><path class="cls-3" d="M116,78.47s-.28-4.4,2.14-7.16A7.11,7.11,0,0,1,116,78.47Z" transform="translate(-37.61 -64.86)"/><path class="cls-3" d="M116,78.73s3.29,2.93,3.5,6.6A7.11,7.11,0,0,1,116,78.73Z" transform="translate(-37.61 -64.86)"/><path class="cls-3" d="M116.21,78.69s3.11-3.13,6.79-3.15A7.15,7.15,0,0,1,116.21,78.69Z" transform="translate(-37.61 -64.86)"/><path class="cls-3" d="M108.4,88.39s-2.92,3.31-6.59,3.55A7.15,7.15,0,0,1,108.4,88.39Z" transform="translate(-37.61 -64.86)"/><path class="cls-3" d="M108.36,88.05s-4.41,0-7-2.57A7.14,7.14,0,0,1,108.36,88.05Z" transform="translate(-37.61 -64.86)"/><path class="cls-3" d="M111.18,90.09V81.92a.26.26,0,0,0,.15-.24.27.27,0,0,0-.15-.24v0h-2.63v0a.27.27,0,0,0-.15.24.26.26,0,0,0,.15.24v8.17a.26.26,0,0,0-.15.24.28.28,0,0,0,.15.24v0h2.63v0a.28.28,0,0,0,.15-.24A.26.26,0,0,0,111.18,90.09Z" transform="translate(-37.61 -64.86)"/><path class="cls-3" d="M111.18,99.74V91.58a.28.28,0,0,0,.15-.25.28.28,0,0,0-.15-.24v0h-2.63v0a.28.28,0,0,0-.15.24.28.28,0,0,0,.15.25v8.16a.27.27,0,0,0-.15.24.26.26,0,0,0,.15.24v0h2.63v0a.26.26,0,0,0,.15-.24A.27.27,0,0,0,111.18,99.74Z" transform="translate(-37.61 -64.86)"/><ellipse class="cls-4" cx="284.22" cy="157.82" rx="19.88" ry="18.7"/><path class="cls-3" d="M319.08,231.77a.2.2,0,0,1-.14.06h0a17.62,17.62,0,0,1-5.94-2.34,12.42,12.42,0,0,1-1.59-1.23,10.45,10.45,0,0,0-2.35,1.09c2.72,4.79,10,2.6,10,2.6a1.64,1.64,0,0,0,.22-.14Z" transform="translate(-37.61 -64.86)"/><path class="cls-3" d="M314.68,228.25A10.25,10.25,0,0,1,312,222.4a27.87,27.87,0,0,0-3.42-.08c.73,6.57,7.41,8.67,10.14,9.26A18.64,18.64,0,0,1,314.68,228.25Z" transform="translate(-37.61 -64.86)"/><path class="cls-3" d="M324.58,231.82a.2.2,0,0,0,.14.06h0a17.62,17.62,0,0,0,5.94-2.34,12.42,12.42,0,0,0,1.59-1.23,10.68,10.68,0,0,1,2.36,1.09c-2.73,4.79-10,2.6-10,2.6a1.1,1.1,0,0,1-.21-.14Z" transform="translate(-37.61 -64.86)"/><path class="cls-3" d="M329,228.3a10.25,10.25,0,0,0,2.69-5.85,27.86,27.86,0,0,1,3.42-.08c-.73,6.57-7.41,8.67-10.14,9.26A18.64,18.64,0,0,0,329,228.3Z" transform="translate(-37.61 -64.86)"/><path class="cls-3" d="M317.87,231.09c0,.06.05.11.07.17l.36.14C318.16,231.31,318,231.2,317.87,231.09Z" transform="translate(-37.61 -64.86)"/><path class="cls-3" d="M322.41,231.68a1.92,1.92,0,0,1-.55-.84,2,2,0,0,1-.56.86.91.91,0,0,1-.16.11,9.59,9.59,0,0,1,1.62.1A1.63,1.63,0,0,1,322.41,231.68Z" transform="translate(-37.61 -64.86)"/><path class="cls-3" d="M326.09,220.42a12.43,12.43,0,0,0-5-7.56,14.24,14.24,0,0,0-4.47,6.94,7.68,7.68,0,0,1,.8.51,10.33,10.33,0,0,1,4.42,6.55A10.33,10.33,0,0,1,326.09,220.42Z" transform="translate(-37.61 -64.86)"/><path class="cls-3" d="M331,218.6s-9.24,1.78-9.1,10.85c0,0-.3,3,2.39,2.27C324.33,231.72,333.7,226.32,331,218.6Z" transform="translate(-37.61 -64.86)"/><path class="cls-3" d="M321.72,229.4c.14-9.07-9.1-10.85-9.1-10.85-2.39,8,6.71,13.12,6.71,13.12C322,232.39,321.72,229.4,321.72,229.4Z" transform="translate(-37.61 -64.86)"/><circle class="cls-5" cx="283.94" cy="19.32" r="18.7"/><path class="cls-3" d="M315,78.06a10.58,10.58,0,0,0,13.62.42,10,10,0,0,1-1.27,15.36H315.79A10,10,0,0,1,315,78.06m0-1.43a11.13,11.13,0,0,0,.44,18.3h12.2a11.13,11.13,0,0,0,1-17.9,9.54,9.54,0,0,1-13.35-.15l-.25-.25Z" transform="translate(-37.61 -64.86)"/><path class="cls-3" d="M322.5,74.39v0a1,1,0,1,0-1.9,0,.43.43,0,0,1,0,0c-2.27.19-4.07.93-4.61,1.88l.21.21a8.18,8.18,0,0,0,11.42.13l0,0C327.4,75.48,325.24,74.53,322.5,74.39Z" transform="translate(-37.61 -64.86)"/><path class="cls-3" d="M329.65,86.8A7.38,7.38,0,0,1,326.2,93h-9.3a7.4,7.4,0,0,1-3.44-6.17c0-1.39.23-2.88,1.93-2.74,1.4.12,2.63,1,4,1.14a8.62,8.62,0,0,0,3.33-.71,5.22,5.22,0,0,1,3.36-.29c.94.32,1.8,1.13,2.77.92a.77.77,0,0,1,.42-.05C329.71,85.17,329.65,86.48,329.65,86.8Z" transform="translate(-37.61 -64.86)"/><circle class="cls-2" cx="56.32" cy="150.94" r="18.7" transform="translate(-139.31 117.5) rotate(-80.78)"/><path class="cls-3" d="M57.06,137.23v16.26l.7.16a6.37,6.37,0,0,1,3.52,2.21,6.35,6.35,0,0,1-.91,8.88l-.15.13,0,.07a10,10,0,0,1-3.87.55,10,10,0,0,1-3.87-.55l0-.07-.15-.13a6.35,6.35,0,0,1,2.61-11.09l.7-.16V137.23h1.48m1.11-.9H54.46a.77.77,0,0,0,0,1.53h.22v14.91a7.26,7.26,0,0,0-3,12.67c.26.54,2.23,1,4.63,1s4.37-.42,4.63-1a7.26,7.26,0,0,0-3-12.67V137.86h.21a.77.77,0,1,0,0-1.53Z" transform="translate(-37.61 -64.86)"/><polygon class="cls-3" points="17.52 69.52 17.87 71.1 19.38 71.1 19.82 69.52 17.52 69.52"/><path class="cls-3" d="M61.8,160.29a5,5,0,0,1-2.33,4.18h-6.3a5,5,0,0,1-2.33-4.18c0-.94.15-1.95,1.31-1.85.94.08,1.78.69,2.72.77a5.91,5.91,0,0,0,2.26-.48,3.57,3.57,0,0,1,2.27-.2c.64.22,1.22.77,1.88.62a.54.54,0,0,1,.28,0C61.84,159.19,61.8,160.08,61.8,160.29Z" transform="translate(-37.61 -64.86)"/><circle class="cls-4" cx="213.63" cy="83.99" r="18.7" transform="translate(45.19 207.75) rotate(-76.72)"/><path class="cls-3" d="M201.15,83.43c.33,5.21,6,9.35,12.88,9.35s12.55-4.14,12.87-9.35Z" transform="translate(-37.61 -64.86)"/><path class="cls-3" d="M223.13,82.68l1.29-2.24a2.34,2.34,0,0,0-.86-3.2h0a2.35,2.35,0,0,0-3.2.86l-2.65,4.58Z" transform="translate(-37.61 -64.86)"/><path class="cls-3" d="M205.86,75.2s-3.14,3.3-.53,6.85c0,0,.73,1.26,1.59.22C206.92,82.27,209.09,77.5,205.86,75.2Z" transform="translate(-37.61 -64.86)"/><path class="cls-3" d="M205.07,82.22A5.12,5.12,0,0,1,204,78.55a6.37,6.37,0,0,0-3.66-.36c.41,3.18,3.68,4.14,5,4.4A1.65,1.65,0,0,1,205.07,82.22Z" transform="translate(-37.61 -64.86)"/><path class="cls-3" d="M211.84,78.19a6.28,6.28,0,0,0-3.9.48,9.47,9.47,0,0,1-.73,3.73.18.18,0,0,1-.05.07l0,.06C208.56,82.2,211.45,81.17,211.84,78.19Z" transform="translate(-37.61 -64.86)"/><circle class="cls-2" cx="253.53" cy="139.74" r="18.7" transform="translate(21.67 289.52) rotate(-76.72)"/><path class="cls-3" d="M253,139.74a22.8,22.8,0,0,0,6.61-.79v-.7a2.33,2.33,0,0,0-2.33-2.33h-.38v-2.59a1.3,1.3,0,0,0,1.17-1.29v-1a1.3,1.3,0,0,0-1.3-1.3h-6.56a1.3,1.3,0,0,0-1.3,1.3v1a1.3,1.3,0,0,0,1.17,1.29v2.59h-.38a2.33,2.33,0,0,0-2.33,2.33v.82A25.11,25.11,0,0,0,253,139.74Z" transform="translate(-37.61 -64.86)"/><path class="cls-3" d="M259.65,144.16V140a22.56,22.56,0,0,1-6.63.79,24.54,24.54,0,0,1-5.61-.66v4.15A24.71,24.71,0,0,0,253,145,22.4,22.4,0,0,0,259.65,144.16Z" transform="translate(-37.61 -64.86)"/><path class="cls-3" d="M253,146.07a24.09,24.09,0,0,1-5.55-.65v2a2.32,2.32,0,0,0,2.33,2.32h7.58a2.32,2.32,0,0,0,2.33-2.32v-2.12A22.5,22.5,0,0,1,253,146.07Z" transform="translate(-37.61 -64.86)"/><ellipse class="cls-5" cx="58.26" cy="163.71" rx="18.09" ry="17.85"/><path class="cls-3" d="M94.15,220c.25,1.23-.08,2.34-.73,2.47s-1.38-.76-1.63-2,.07-2.34.72-2.48S93.9,218.79,94.15,220Z" transform="translate(-37.61 -64.86)"/><path class="cls-3" d="M95.29,228.88a3.2,3.2,0,0,1-.21-1.55,10.18,10.18,0,0,0,.28-2.45c0-.19-.06-.36-.1-.52a4.1,4.1,0,0,0-.23-.7c0-.41-.1-.88-.15-1.18a4.16,4.16,0,0,1-1.7.8,2.27,2.27,0,0,1-1.31-.09l-.35-.07a4.15,4.15,0,0,1,.52.59c-.15-.16-.43-.5-.65-.5a3.9,3.9,0,0,1,1,1.75,8.49,8.49,0,0,1,.15,3.43c-1,2.93-2,4.48-2,7.78a15.88,15.88,0,0,0,.49,3.82c.07.26.14.52.21.76.27,1,.53,1.78.72,2.35.09.28.17.5.23.65l.08.23a0,0,0,0,0,0,0s0,0,0,0a2.25,2.25,0,0,0,0-.25c0-.16,0-.39-.06-.68s-.06-.53-.1-.85c.09-1.73.58-7.39,1.19-8.29.08-.14-1,7.82-.94,7.91a12.25,12.25,0,0,0,1-2.32c.87-2.13,2.23-4.11,2.36-6.47a9.59,9.59,0,0,0-.06-2.73A12.08,12.08,0,0,0,95.29,228.88Z" transform="translate(-37.61 -64.86)"/><path class="cls-3" d="M89.92,214.41h0v.08a3.13,3.13,0,0,0,0,.34v.24a2.44,2.44,0,0,1,0,.28c0,.2,0,.43,0,.68s0,.51.06.79,0,.58.09.89.07.62.11.93.11.64.16.95.14.63.21.93.17.59.26.86a5.67,5.67,0,0,0,.32.74,3.73,3.73,0,0,0,.35.57,2.21,2.21,0,0,0,.35.38,1.18,1.18,0,0,0,.3.21l.2.1.08,0a.41.41,0,0,1,.28.51.4.4,0,0,1-.51.28h0l-.11,0-.32-.15a2.52,2.52,0,0,1-.44-.32,2.37,2.37,0,0,1-.46-.52,4.29,4.29,0,0,1-.42-.71,6.53,6.53,0,0,1-.32-.85,10.71,10.71,0,0,1-.4-1.92,16.74,16.74,0,0,1-.14-2v-.9c0-.29,0-.56,0-.81,0-.5.08-.92.12-1.21a2.93,2.93,0,0,1,.06-.33l0-.1,0,0,0,0h0a0,0,0,0,1,.05,0s0,0,0,0Z" transform="translate(-37.61 -64.86)"/><path class="cls-3" d="M92.31,213.12A5.55,5.55,0,0,1,94,215.06c.16.24.33.5.49.78,1.24,2,2.77,5.34.84,7.47l-.11.12h0a.42.42,0,0,1-.69-.29c0-.33.4-.61.54-.88a4.09,4.09,0,0,0,.23-2.54,15.59,15.59,0,0,0-3-6.57.08.08,0,0,1,0,0Z" transform="translate(-37.61 -64.86)"/><line class="cls-6" x1="10.94" y1="53.51" x2="100.76" y2="53.51"/><line class="cls-6" x1="199.4" y1="104.45" x2="269.84" y2="104.45"/><line class="cls-6" x1="242.62" y1="51.91" x2="288.62" y2="51.91"/><line class="cls-6" x1="46.14" y1="91.66" x2="92.14" y2="91.66"/><line class="cls-6" x1="95.49" y1="0.43" x2="130.98" y2="0.43"/><line class="cls-6" x1="69.14" y1="172.87" x2="115.14" y2="172.87"/><ellipse class="cls-7" cx="213.83" cy="26.9" rx="2.57" ry="2.59"/><path class="cls-7" d="M267.32,191.81a2.57,2.57,0,1,1-2.57-2.59A2.58,2.58,0,0,1,267.32,191.81Z" transform="translate(-37.61 -64.86)"/><path class="cls-7" d="M264.75,243.07a2.57,2.57,0,1,1-2.57-2.59A2.58,2.58,0,0,1,264.75,243.07Z" transform="translate(-37.61 -64.86)"/><path class="cls-7" d="M212.64,155.14a2.58,2.58,0,1,1-2.57-2.59A2.58,2.58,0,0,1,212.64,155.14Z" transform="translate(-37.61 -64.86)"/><path class="cls-7" d="M88.9,195.09a2.57,2.57,0,1,1-2.57-2.59A2.58,2.58,0,0,1,88.9,195.09Z" transform="translate(-37.61 -64.86)"/><ellipse class="cls-7" cx="94.84" cy="71.49" rx="2.57" ry="2.59"/><path class="cls-8" d="M230.84,184.85c2.62-2.17,1.36-7.26-2-7.95,2.14-.32,3-3.27,1.95-5.14s-3.4-2.67-5.56-2.77c.72-2.94-2.48-6-5.39-5.23.23-2-1.72-3.63-3.68-3.85s-3.87.61-5.67,1.41a6.71,6.71,0,0,0-9.77-1.41,5.94,5.94,0,0,0-5.06.5,4.59,4.59,0,0,0-5.79,6.88,4.91,4.91,0,0,0-.74.24,5.57,5.57,0,0,0-5.53,8.18,4.75,4.75,0,0,0-4.69,2.25,4.54,4.54,0,0,0-.27,3.61,7,7,0,0,0,1.3,2.61,3.58,3.58,0,0,0-2.75,3.92,5.22,5.22,0,0,0,3,3.74,8.14,8.14,0,0,0,.14,2,4.16,4.16,0,0,0,1.89,4.23,5.87,5.87,0,0,0,1,.43,8,8,0,0,0,3.3,1.64,5.71,5.71,0,0,0,8.76,6.75c.9,2.41,3.69,3.66,6.25,3.56s4.95-1.24,7.25-2.36c1.44,2.3,4.74,2.25,7.43,1.93a16.18,16.18,0,0,0,6.48-1.7c1.93-1.15,3.39-3.41,2.89-5.61,1.13,1.29,3.46.74,4.35-.72a5.46,5.46,0,0,0,0-4.93C234.16,194.78,234.73,187.76,230.84,184.85Z" transform="translate(-37.61 -64.86)"/><path class="cls-9" d="M105.57,381.81a3,3,0,0,0-.23,1.48c.23,1.45,2.23,2.55,3.84,2.5A6.58,6.58,0,0,0,113.1,384c4.7-3.85,7.71-5.52,12.15-9.56,2.71-2.47,8.05-12,3.31-14.22C117.65,355.12,107.74,375.54,105.57,381.81Z" transform="translate(-37.61 -64.86)"/><path class="cls-9" d="M287.45,375.75a2.08,2.08,0,0,0,.59-3.89,63.6,63.6,0,0,0-6.73-2.64c-5.07-1.59-11.71-4.57-17.05-4.37-3.05.11-3.79,3.79-4,6.89a2.72,2.72,0,0,0,1.86,2.79C267.16,376,271.64,377.5,287.45,375.75Z" transform="translate(-37.61 -64.86)"/><path class="cls-10" d="M270,360.63c0,.11-.74,6.62-.74,6.62s-3.58,2-5-.19-.89-9-.89-9Z" transform="translate(-37.61 -64.86)"/><path class="cls-11" d="M262.84,358.51c0,.17,0,.38,0,.62C262.82,358.89,262.83,358.68,262.84,358.51Z" transform="translate(-37.61 -64.86)"/><path class="cls-11" d="M262.78,360c0,.15,0,.3,0,.46C262.77,360.27,262.78,360.12,262.78,360Z" transform="translate(-37.61 -64.86)"/><path class="cls-11" d="M262.81,359.14q0,.36,0,.81Q262.8,359.5,262.81,359.14Z" transform="translate(-37.61 -64.86)"/><path class="cls-11" d="M262.87,358.14c0,.08,0,.2,0,.35C262.86,358.34,262.86,358.22,262.87,358.14Z" transform="translate(-37.61 -64.86)"/><path class="cls-11" d="M262.88,358.05v0Z" transform="translate(-37.61 -64.86)"/><path class="cls-9" d="M207.81,290.91s56.36,19.95,62.87,21.4,3.21-15.71,3.21-15.71S239.94,268.43,223,272.48c-.94,5.32-9.81,4.48-11,8.17A86.69,86.69,0,0,1,207.81,290.91Z" transform="translate(-37.61 -64.86)"/><path class="cls-10" d="M280.64,206.5s-.62-5.64,8.44-7.68c0,0,.76,1.14-2.11,3.44a46.26,46.26,0,0,1-5.1,3.7A4.73,4.73,0,0,1,280.64,206.5Z" transform="translate(-37.61 -64.86)"/><path class="cls-10" d="M283.13,210.74a23.24,23.24,0,0,0,8.68-3.08c3.61-2.43,3.72-4.91,3.53-6.29-.14-.94-.65-3.84-1.92-2.78s-8.16,3.6-9.8,4.46-3.26,3.53-3.15,4A41.71,41.71,0,0,0,283.13,210.74Z" transform="translate(-37.61 -64.86)"/><path class="cls-10" d="M254.61,220.74c-1.53-1.09-2.21-1.21-1.69-4,.44-2.34.44-2.34,3.68-3.83h0c10.74-2,22.9-5.16,29.76-8.72,7.69-4,1.81,3.77,1.81,3.77C280.36,213.85,267.54,218.08,254.61,220.74Z" transform="translate(-37.61 -64.86)"/><path class="cls-10" d="M256,213.18c2,2.22,1.82,1.53,1.52,3.82-.35,2.72.31,2.41-3,3.78-18.12,3.27-36.65,2.75-38.46-.39-3-5.13,6.18-7.49,6.18-7.49s16.77,1.12,27.5.88a47,47,0,0,0,6.25-.6Z" transform="translate(-37.61 -64.86)"/><path class="cls-10" d="M138.24,207.72s.62-5.64-8.44-7.69c0,0-.77,1.14,2.11,3.44a47.3,47.3,0,0,0,5.09,3.7A4.86,4.86,0,0,0,138.24,207.72Z" transform="translate(-37.61 -64.86)"/><path class="cls-10" d="M135.74,212a23.19,23.19,0,0,1-8.68-3.07c-3.6-2.43-3.71-4.92-3.52-6.29.13-.94.65-3.84,1.92-2.79s8.16,3.6,9.79,4.47,3.27,3.53,3.16,4A42.85,42.85,0,0,1,135.74,212Z" transform="translate(-37.61 -64.86)"/><path class="cls-10" d="M164.27,222c1.53-1.09,2.21-1.22,1.69-4-.44-2.34-.44-2.34-3.68-3.82h0c-10.74-2-22.9-5.15-29.76-8.71-7.69-4-1.81,3.77-1.81,3.77C138.52,215.07,151.34,219.29,164.27,222Z" transform="translate(-37.61 -64.86)"/><path class="cls-10" d="M162.9,214.39c-2,2.23-1.81,1.54-1.51,3.82.35,2.72-.32,2.41,3,3.79,18.13,3.27,36.65,2.75,38.47-.39,3-5.14-6.18-7.49-6.18-7.49s-16.78,1.12-27.5.88a47,47,0,0,1-6.25-.61Z" transform="translate(-37.61 -64.86)"/><path class="cls-10" d="M226.39,213.86c-7.5-5-24.58-4.66-30.21,1.1-3.32,3.4,4.08,15,5.71,30.94.93,9.13-.23,19.18-6,26.67,4.82-6.19,31.34,4.32,34-.92,1-2.09-6.93-6.68-7.15-21.47C222.47,234.88,229.51,215.92,226.39,213.86Z" transform="translate(-37.61 -64.86)"/><path class="cls-9" d="M222.47,279c-13.94,21.08-51.61,44.39-57.45,48.43s-8.63-9.86-8.63-9.86,31.21-42.9,35.66-45.47S225.58,274.27,222.47,279Z" transform="translate(-37.61 -64.86)"/><path class="cls-9" d="M220.89,292.08l-14.11,3.05c-5.84,0-16.47-13.28-16.47-19.12,0,0,1-5.68,7.66-9.06l31.56-.15c3.54,8.66,2.69,8.24,2.69,14.08l-1.9-.76C230.32,286,226.73,292.08,220.89,292.08Z" transform="translate(-37.61 -64.86)"/><path class="cls-11" d="M272.33,342.48c0,.17,0,.38,0,.62C272.31,342.86,272.32,342.65,272.33,342.48Z" transform="translate(-37.61 -64.86)"/><path class="cls-11" d="M272.25,343.94l0,.46Z" transform="translate(-37.61 -64.86)"/><path class="cls-11" d="M272.34,342.11a3.33,3.33,0,0,0,0,.35A3.33,3.33,0,0,1,272.34,342.11Z" transform="translate(-37.61 -64.86)"/><path class="cls-11" d="M272.34,342v0Z" transform="translate(-37.61 -64.86)"/><path class="cls-10" d="M133,360.05c-.07.09-4.63,4.79-4.63,4.79s-4.06-.6-3.88-3.23,4.78-7.66,4.78-7.66Z" transform="translate(-37.61 -64.86)"/><path class="cls-11" d="M128.66,354l-.4.46Z" transform="translate(-37.61 -64.86)"/><path class="cls-11" d="M127.72,355.13l-.29.36Z" transform="translate(-37.61 -64.86)"/><path class="cls-11" d="M128.91,353.74a2.25,2.25,0,0,0-.24.26Z" transform="translate(-37.61 -64.86)"/><path class="cls-11" d="M129,353.67l-.05.05Z" transform="translate(-37.61 -64.86)"/><path class="cls-10" d="M205.7,199.88c1.78-1.69,8.16-2.14,8.59.78.38,2.62.81,11.38.43,12.7-1,3.47-6.85,9-7.49,7.25S204.46,201.05,205.7,199.88Z" transform="translate(-37.61 -64.86)"/><path class="cls-9" d="M257.67,303.88s4.94,50.17,5.29,56.34,9.19,1.81,9.19,1.81,7.18-56,1.72-65.17C270.86,291.82,257.67,303.88,257.67,303.88Z" transform="translate(-37.61 -64.86)"/><path class="cls-9" d="M158.36,315.58s-8,2.33-31.2,38.15c-3,4.62,6.07,7.69,6.07,7.69s35.83-34.23,39.17-38.9S158.36,315.58,158.36,315.58Z" transform="translate(-37.61 -64.86)"/><path class="cls-12" d="M219.75,204.24c-4.36,5.51-8.75,4-12.61,1.23-4.63-3.29-6.61-5.45-7.48-7.13s-2.8-17.29-2-20.45,17.86-2.14,21.16-1.8C225.76,176.82,224,198.86,219.75,204.24Z" transform="translate(-37.61 -64.86)"/><path class="cls-12" d="M196.4,196.84a2.86,2.86,0,1,0,1.33-4A3,3,0,0,0,196.4,196.84Z" transform="translate(-37.61 -64.86)"/><path class="cls-13" d="M197.61,196.52a1.56,1.56,0,1,0,.71-2.22A1.65,1.65,0,0,0,197.61,196.52Z" transform="translate(-37.61 -64.86)"/><path class="cls-14" d="M229.53,266.8c.55,1-11.51,3.33-11.51,3.33-4.22.19-10,.45-14.28-.31-5.61-1-5.47-2.83-5.47-2.83,7-13.5,1.39-29.49.9-34.65,6.05-4.72,4.28-13,1.81-20.26a23.68,23.68,0,0,1,2.77-.82,7.21,7.21,0,0,0,.21,2.05c1.46,3.48,11.08,14.07,13,13.46,3.91-1.25-.76-11.49-.12-16.06,1.94.26,3.78.25,5,1.78,1.47,1.88,2.16,4.47,3.54,6.46,1.63,2.37,1.92,5.2,2.61,8,1.49,6.11-2.86,12.95-3.31,18.93C223.79,257.21,227.66,263.18,229.53,266.8Z" transform="translate(-37.61 -64.86)"/><path class="cls-8" d="M224.57,179.49a16.72,16.72,0,0,1,.71,2.87,24.74,24.74,0,0,1-.25,5.36,23,23,0,0,1-1.82,4.9,18.22,18.22,0,0,1-.16-5.37,11,11,0,0,0-.37-4.08,4.51,4.51,0,0,0-2.43-2.65,6.24,6.24,0,0,1-1.43-.59c-.44-.34-.62-.94-1-1.36-.81-1-3-2.85-3-4.24,0-2,3.1-.76,4.08-.37a9.27,9.27,0,0,1,4.76,3.71A9.78,9.78,0,0,1,224.57,179.49Z" transform="translate(-37.61 -64.86)"/><path class="cls-8" d="M195.39,179.57c2-4.19,7.05-5.87,11.66-6.31a41.2,41.2,0,0,1,8.16.06c3.07.34,6.23,4.15,4.07,7.14-.72,1-1.74,1.9-1.8,3.12a9.5,9.5,0,0,0,.39,2.09,3.84,3.84,0,0,1-5.07,4.23,4.38,4.38,0,0,1-6.31,2.14,4.54,4.54,0,0,1-6.46,1c-.47-.39-3.1.23-3.63.86C194.25,189.88,193.38,183.85,195.39,179.57Z" transform="translate(-37.61 -64.86)"/></svg>