<svg id="Capa_1" data-name="Capa 1" xmlns="http://www.w3.org/2000/svg" viewBox="0 0 1697.04264 1570.77564"><defs><style>.cls-1{fill:#b0b387;}.cls-2{fill:#187ba9;}.cls-3{fill:#44aae0;}.cls-4{fill:#f5a384;}.cls-5{fill:#cee8ef;}.cls-6{fill:#cee2ee;}.cls-7{fill:#4c8ea5;}.cls-8{fill:#2f606d;}.cls-9{fill:#222435;}.cls-10{fill:#305768;}.cls-11{fill:#df7c61;}.cls-12,.cls-17,.cls-19,.cls-23,.cls-29{fill:none;stroke-linecap:round;stroke-miterlimit:10;}.cls-12,.cls-17,.cls-19{stroke:#c66652;}.cls-12{stroke-width:2.96266px;}.cls-13{fill:#31130c;}.cls-14{fill:#f28e75;}.cls-15{fill:#441d15;}.cls-16{fill:#1d0908;}.cls-17{stroke-width:2.23412px;}.cls-18{fill:#5f6684;}.cls-19,.cls-23{stroke-width:2.82699px;}.cls-20{fill:#2d0f0d;}.cls-21{fill:#d8e0e6;}.cls-22{fill:#491c1b;}.cls-23{stroke:#2d0f0d;}.cls-24{fill:#9c4021;}.cls-25{fill:#b75630;}.cls-26{fill:#e8ecf8;}.cls-27{fill:#b2bad6;}.cls-28{fill:#903b17;}.cls-29{stroke:#62212a;stroke-width:2.71406px;}.cls-30{fill:#62212a;}.cls-31{fill:#a73b1b;}.cls-32{fill:#e9447a;}.cls-33{fill:#cc623e;}</style></defs><title>Features-1</title><path class="cls-1" d="M1908.935,1662.43091c-11.4442,134.9019-394.1034,212.5855-854.6931,173.5112-460.58931-39.0743-853.30381-26.6078-841.859-161.5097,11.4442-134.9023,398.16639-171.52249,858.75571-132.4482C1531.7283,1581.05851,1920.3798,1527.52912,1908.935,1662.43091Z" transform="translate(-212.13887 -275.27244)"/><rect class="cls-2" x="453.10882" y="110.78076" width="121.1392" height="28.0935"/><polygon class="cls-2" points="597.95 153.338 597.95 153.338 586.099 153.338 586.099 153.338 586.099 96.318 586.099 96.318 597.95 96.318 597.95 96.318 597.95 153.338"/><path class="cls-3" d="M565.03182,88.24646h18.4333a7.9016,7.9016,0,0,1,7.9016,7.9016v57.35942a7.90158,7.90158,0,0,1-7.90158,7.90158H565.03032a7.9001,7.9001,0,0,1-7.9001-7.9001V96.14806A7.9016,7.9016,0,0,1,565.03182,88.24646Z"/><polygon class="cls-2" points="434.674 153.338 434.674 153.338 446.525 153.338 446.525 153.338 446.525 96.318 446.525 96.318 434.674 96.318 434.674 96.318 434.674 153.338"/><path class="cls-3" d="M449.15952,88.24646h18.4333a7.8996,7.8996,0,0,1,7.8996,7.8996v57.3614a7.9016,7.9016,0,0,1-7.9016,7.9016H449.159a7.9011,7.9011,0,0,1-7.9011-7.9011V96.14806A7.9016,7.9016,0,0,1,449.15952,88.24646Z"/><path class="cls-4" d="M880.51118,1047.9917s-40.6987,208.82322-38.1628,261.494c3.3865,70.30528-13.0158,220.43209-15.9778,238.48428,0,0,46.6761,26.32591,54.1406-9.55389,15.1645-72.89919,47.2183-106.78539,48.4286-187.17059.6805-45.1234,12.8227-55.5858,44.9489-189.3172C977.55258,1146.67492,880.51118,1047.9917,880.51118,1047.9917Z" transform="translate(-212.13887 -275.27244)"/><path class="cls-5" d="M838.62058,1424.40262c-3.2383,43.949-7.6052,86.14938-10.2853,108.61689l45.1953,18.9147c3.2079-2.944,5.684-7.2914,6.9806-13.5181,8.5047-40.89129,22.3257-69.50819,33.0361-100.94029C896.12818,1434.47992,857.73588,1427.853,838.62058,1424.40262Z" transform="translate(-212.13887 -275.27244)"/><path class="cls-6" d="M864.3,1531.52531s-28.46622-36.278-51.65562-19.92409c0,0-23.7855,26.303-29.50038,37.83-9.55492,19.277-48.41512,42.8475-50.75052,58.7744,0,0-6.585,16.56239,4.2456,24.8451,8.4868,6.4887,32.4998,21.9376,70.1443,5.5817,40.7017-17.68641,36.5603-38.0725,48.9829-48.5853,12.4226-10.5088,30.1834-17.1027,33.3025-31.6107,4.304-20.0203-3.643-40.45429-3.643-40.45429Z" transform="translate(-212.13887 -275.27244)"/><path class="cls-7" d="M812.64438,1511.60122s-23.7855,26.303-29.50038,37.83c-6.569,13.2543-26.98742,28.5341-39.868,41.966,15.75218,2.7299,41.81518,9.6382,53.84668,26.3643,0,0,30.6119-16.56451,38.8952-28.0302,8.2807-11.4692,14.6516-20.3875,23.57-24.8452,8.2727-4.1353,27.9972-20.9827,20.9233-43.75439L864.3,1531.52531S835.83378,1495.24732,812.64438,1511.60122Z" transform="translate(-212.13887 -275.27244)"/><path class="cls-8" d="M843.28028,1513.08s-27.4015,61.36411-52.8962,76.97111c0,0-4.8638,4.13989,0,5.0963,4.8632.9529,42.6588-39.7109,57.36892-79.95709Z" transform="translate(-212.13887 -275.27244)"/><path class="cls-6" d="M766.91928,1569.05841s27.6909,13.6664,35.3346,25.13259c0,0,7.4994,7.006,7.5733,0,.07282-7.00859-23.26918-24.245-38.5141-29.482C771.31308,1564.709,765.98238,1562.72241,766.91928,1569.05841Z" transform="translate(-212.13887 -275.27244)"/><path class="cls-6" d="M772.971,1559.503s27.69088,13.66441,35.33448,25.13211c0,0,7.49952,7.0065,7.5728,0,.0718-7.0066-23.2687-24.2445-38.5135-29.4815C777.36478,1555.15361,772.035,1553.16651,772.971,1559.503Z" transform="translate(-212.13887 -275.27244)"/><path class="cls-6" d="M779.65868,1552.61371s27.6919,13.6664,35.3365,25.1326c0,0,7.5005,7.006,7.57182,0,.07288-7.0066-23.26812-24.245-38.51252-29.482C784.05448,1548.26431,778.72378,1546.27771,779.65868,1552.61371Z" transform="translate(-212.13887 -275.27244)"/><path class="cls-6" d="M784.43618,1543.06031s27.6914,13.6624,35.337,25.1321c0,0,7.5005,7.0065,7.57282,0,.07178-7.0071-23.26872-24.2466-38.51352-29.4855C788.83248,1538.70691,783.50268,1536.72381,784.43618,1543.06031Z" transform="translate(-212.13887 -275.27244)"/><path class="cls-6" d="M790.49378,1532.86931s27.6909,13.6623,35.336,25.128c0,0,7.501,7.0066,7.5733,0,.07192-7.0065-23.2686-24.2445-38.5145-29.4814C794.88858,1528.51591,789.55838,1526.53082,790.49378,1532.86931Z" transform="translate(-212.13887 -275.27244)"/><path class="cls-4" d="M1132.0073,1047.9917s40.6987,208.82322,38.1608,261.494c-3.3856,70.30528,13.0158,220.43209,15.9787,238.48428,0,0-46.675,26.32591-54.1395-9.55389-15.1661-72.89919-47.2203-106.78539-48.4302-187.17059-.6805-45.1234-12.8222-55.5858-44.9473-189.3172C1034.9639,1146.67492,1132.0073,1047.9917,1132.0073,1047.9917Z" transform="translate(-212.13887 -275.27244)"/><path class="cls-5" d="M1173.8958,1424.40262c3.2384,43.949,7.6063,86.14938,10.2854,108.61689l-45.1943,18.9147c-3.2079-2.944-5.685-7.2914-6.9796-13.5181-8.5068-40.89129-22.3268-69.50819-33.0361-100.94029C1116.3882,1434.47992,1154.781,1427.853,1173.8958,1424.40262Z" transform="translate(-212.13887 -275.27244)"/><path class="cls-6" d="M1148.217,1531.52531s28.4667-36.278,51.656-19.92409c0,0,23.786,26.303,29.5009,37.83,9.556,19.277,48.4157,42.8475,50.7516,58.7744,0,0,6.5834,16.56239-4.2477,24.8451-8.4852,6.4887-32.4988,21.9376-70.1447,5.5817-40.7017-17.68641-36.5578-38.0725-48.9809-48.5853-12.4226-10.5088-30.1839-17.1027-33.303-31.6107-4.3035-20.0203,3.6414-40.45429,3.6414-40.45429Z" transform="translate(-212.13887 -275.27244)"/><path class="cls-7" d="M1199.873,1511.60122s23.786,26.303,29.5009,37.83c6.5695,13.2543,26.987,28.5341,39.8671,41.966-15.7513,2.7299-41.8158,9.6382-53.8472,26.3643,0,0-30.6115-16.56451-38.8947-28.0302-8.2812-11.4692-14.6522-20.3875-23.5695-24.8452-8.2737-4.1353-27.9962-20.9827-20.9223-43.75439l16.2097,10.39359S1176.6837,1495.24732,1199.873,1511.60122Z" transform="translate(-212.13887 -275.27244)"/><path class="cls-8" d="M1169.2386,1513.08s27.4001,61.36411,52.8948,76.97111c0,0,4.8628,4.13989,0,5.0963-4.8623.9529-42.6594-39.7109-57.3674-79.95709Z" transform="translate(-212.13887 -275.27244)"/><path class="cls-6" d="M1245.5971,1569.05841s-27.6909,13.6664-35.3345,25.13259c0,0-7.4994,7.006-7.5723,0-.0713-7.00859,23.2692-24.245,38.5135-29.482C1241.2038,1564.709,1246.5341,1562.72241,1245.5971,1569.05841Z" transform="translate(-212.13887 -275.27244)"/><path class="cls-6" d="M1239.5475,1559.503s-27.6924,13.66441-35.3365,25.13211c0,0-7.4995,7.0065-7.5723,0-.0724-7.0066,23.2691-24.2445,38.5135-29.4815C1235.1522,1555.15361,1240.4804,1553.16651,1239.5475,1559.503Z" transform="translate(-212.13887 -275.27244)"/><path class="cls-6" d="M1232.8578,1552.61371s-27.6909,13.6664-35.3356,25.1326c0,0-7.5004,7.006-7.5723,0-.0733-7.0066,23.2682-24.245,38.5135-29.482C1228.4634,1548.26431,1233.7927,1546.27771,1232.8578,1552.61371Z" transform="translate(-212.13887 -275.27244)"/><path class="cls-6" d="M1228.0793,1543.06031s-27.6899,13.6624-35.335,25.1321c0,0-7.5005,7.0065-7.5713,0-.0734-7.0071,23.2681-24.2466,38.5125-29.4855C1223.6855,1538.70691,1229.0157,1536.72381,1228.0793,1543.06031Z" transform="translate(-212.13887 -275.27244)"/><path class="cls-6" d="M1222.0227,1532.86931s-27.6909,13.6623-35.3356,25.128c0,0-7.5004,7.0066-7.5718,0-.0728-7.0065,23.2687-24.2445,38.5131-29.4814C1217.6284,1528.51591,1222.9586,1526.53082,1222.0227,1532.86931Z" transform="translate(-212.13887 -275.27244)"/><path class="cls-9" d="M1151.4648,1116.1213c-4.4427-13.3296-8.8873-38.5115-8.8873-56.2868,0-17.7773-4.4437-17.7773-7.4057-37.0308-2.964-19.256-11.8509-29.6261-13.3326-53.3258-1.4787-23.6972-11.8488-48.8812-11.8488-48.8812H899.58408s-10.3706,25.184-11.8508,48.8812c-1.4808,23.6997-10.3682,34.0698-13.3301,53.3258-2.9625,19.2535-7.40618,19.2535-7.40618,37.0308,0,17.7753-4.44472,42.9572-8.88842,56.2868-4.4427,13.33163-14.8108,54.80612-11.8498,63.69352,2.9629,8.8874,28.1444,10.3701,53.3253,17.7773,25.1814,7.4051,67.0575,7.8347,75.94392,3.3905l29.2595-158.92542,29.2579,158.92542c8.8874,4.4442,50.762,4.0146,75.945-3.3905,25.1814-7.4072,50.3623-8.8899,53.3248-17.7773C1166.2772,1170.92742,1155.909,1129.45293,1151.4648,1116.1213Z" transform="translate(-212.13887 -275.27244)"/><path class="cls-4" d="M1184.5009,701.807s71.844,22.7139,92.1073,24.6895c20.2638,1.9732,35.0018.9858,38.6862-24.6895,3.6838-25.6788-4.8483-214.1914-10.1327-244.8667l-28.5535,2.7419s-10.3052,75.5618-17.4984,116.2605c-3.7482,21.1888-12.3168,65.3593-12.3168,75.2345l-48.4755-26.4012Z" transform="translate(-212.13887 -275.27244)"/><path class="cls-4" d="M824.99268,701.807s-71.8435,22.7139-92.1063,24.6895c-20.2648,1.9732-35.0028.9858-38.6866-24.6895-3.6834-25.6788,4.8478-214.1914,10.1331-244.8667l28.5535,2.7419s10.3048,75.5618,17.4984,116.2605c3.74622,21.1888,12.3173,65.3593,12.3173,75.2345l48.4741-26.4012Z" transform="translate(-212.13887 -275.27244)"/><path class="cls-10" d="M1198.0306,617.737c-19.7734-14.8138-46.3073-45.4313-70.5329-51.4365-24.226-6.0033-90.3012-31.0565-90.3012-31.0565l-31.7026,3.9333-31.70152-3.9333s-66.0732,25.0532-90.3008,31.0565c-24.227,6.0052-57.0895,36.6227-76.8594,51.4365-19.7714,14.8138-28.24418,21.8533-28.24418,21.8533s6.49118,76.5935,25.63,73.2109c33.67968-5.9533,78.847-20.9462,78.847-20.9462l17.45048,202.7775s-19.5973,23.1564-6.11648,37.9727c6.46518,7.1044,57.22318,12.8482,111.2949,14.282,54.0747-1.4338,104.8292-7.1776,111.2969-14.282,13.4808-14.8163-6.117-37.9727-6.117-37.9727l17.451-202.7775s38.8398,14.9929,72.5195,20.9462c19.1383,3.3826,25.6295-73.2109,25.6295-73.2109S1217.8005,632.5508,1198.0306,617.737Z" transform="translate(-212.13887 -275.27244)"/><path class="cls-7" d="M1039.8082,536.2278q-3.4281-.22515-7.0065-.441l-27.3078,3.3905-31.70152-3.9333s-29.5189,11.1923-56.3302,20.407C900.90668,591.906,882.865,691.855,882.865,691.855l17.45048,202.7775s-19.5973,23.1564-6.11648,37.9727c6.46518,7.1044,57.22318,12.8482,111.2949,14.282,54.0747-1.4338,104.8292-7.1776,111.2969-14.282,13.4808-14.8163-6.117-37.9727-6.117-37.9727l17.451-202.7775s.6401.2464,1.82.6869c-9.0256-33.4746-33.519-108.759-43.5614-139.367C1066.5228,546.2228,1046.7494,538.8386,1039.8082,536.2278Z" transform="translate(-212.13887 -275.27244)"/><path class="cls-10" d="M1081.9298,551.6099c-18.2932-6.4637-35.7003-12.9679-42.1216-15.3821q-3.4281-.22515-7.0065-.441l-27.3078,3.3905-31.70152-3.9333s-26.7899,10.1566-52.5072,19.0864C1007.1383,630.3232,1064.5072,573.7111,1081.9298,551.6099Z" transform="translate(-212.13887 -275.27244)"/><path class="cls-4" d="M1034.6231,459.4083H972.40838s1.9752,74.0681-37.5277,88.8819c0,0,35.5521,26.6647,68.63362,27.6525,33.0845-.9878,68.6365-27.6525,68.6365-27.6525C1032.647,533.4764,1034.6231,459.4083,1034.6231,459.4083Z" transform="translate(-212.13887 -275.27244)"/><path class="cls-11" d="M1040.2802,505.2467c-6.2647-22.899-5.6571-45.8384-5.6571-45.8384H972.40838a182.7043,182.7043,0,0,1-3.1156,34.7748C981.37458,502.1116,1004.1943,511.4345,1040.2802,505.2467Z" transform="translate(-212.13887 -275.27244)"/><path class="cls-4" d="M937.18508,406.081c0,48.5434,35.4962,87.8941,66.32922,87.8941,30.8355,0,66.3316-39.3507,66.3316-87.8941,0-48.5404-17.0469-87.8916-66.3316-87.8916C954.23248,318.1894,937.18508,357.5406,937.18508,406.081Z" transform="translate(-212.13887 -275.27244)"/><path class="cls-4" d="M915.84368,414.1602c2.517,10.9917,11.2387,18.3719,19.4786,16.4851s12.882-12.3263,10.3641-23.3185c-2.516-10.9918-11.2372-18.37-19.4775-16.4847C917.96748,392.727,913.32878,403.1684,915.84368,414.1602Z" transform="translate(-212.13887 -275.27244)"/><path class="cls-4" d="M1091.1868,414.1602c-2.5164,10.9917-11.2382,18.3719-19.479,16.4851s-12.8806-12.3263-10.3626-23.3185c2.5159-10.9918,11.2372-18.37,19.4775-16.4847C1089.063,392.727,1093.7038,403.1684,1091.1868,414.1602Z" transform="translate(-212.13887 -275.27244)"/><path class="cls-12" d="M1083.3431,397.5249s-9.2186-2.1448-15.1435,22.3826" transform="translate(-212.13887 -275.27244)"/><path class="cls-12" d="M924.01618,397.5249s9.2207-2.1448,15.1441,22.3826" transform="translate(-212.13887 -275.27244)"/><path class="cls-13" d="M982.19028,386.3974a16.713,16.713,0,0,0-5.2738-2.3593,16.4985,16.4985,0,0,0-6.0706-.4639,17.4934,17.4934,0,0,0-6.0362,1.7696,25.89083,25.89083,0,0,0-5.4645,3.6689l-.0389.0339a.76008.76008,0,0,1-1.0571-1.0851,27.99556,27.99556,0,0,1,5.213-4.8773,20.96849,20.96849,0,0,1,14.241-3.8355,21.7853,21.7853,0,0,1,7.6322,2.0794,2.99908,2.99908,0,0,1-2.5943,5.4081,2.87814,2.87814,0,0,1-.436-.2569Z" transform="translate(-212.13887 -275.27244)"/><path class="cls-13" d="M1022.4799,381.1685a23.2957,23.2957,0,0,1,7.5299-1.2742,25.54755,25.54755,0,0,1,13.7442,3.7482,30.688,30.688,0,0,1,5.4615,4.2641.75983.75983,0,0,1-.938,1.1889l-.0414-.028a28.61222,28.61222,0,0,0-5.661-3.0747,21.94055,21.94055,0,0,0-6.0561-1.5067,20.84949,20.84949,0,0,0-6.0731.2425,18.32167,18.32167,0,0,0-5.4081,1.8285l-.0878.0509a2.99939,2.99939,0,1,1-2.962-5.2165A3.26777,3.26777,0,0,1,1022.4799,381.1685Z" transform="translate(-212.13887 -275.27244)"/><path class="cls-13" d="M968.28,403.0856a5.60814,5.60814,0,1,0,5.60868-5.6086A5.60592,5.60592,0,0,0,968.28,403.0856Z" transform="translate(-212.13887 -275.27244)"/><path class="cls-13" d="M1026.1234,403.0856a5.6084,5.6084,0,1,0,5.6076-5.6086A5.606,5.606,0,0,0,1026.1234,403.0856Z" transform="translate(-212.13887 -275.27244)"/><path class="cls-12" d="M1020.7967,390.5473s-9.8753,9.8562-7.1582,33.8039c0,0,5.9244,19.9969-5.678,21.7685-7.1318,1.0876-9.21673-.9664-9.21673-.9664" transform="translate(-212.13887 -275.27244)"/><path class="cls-12" d="M1023.7601,456.9403s-22.221,12.3452-39.99722,0" transform="translate(-212.13887 -275.27244)"/><path class="cls-14" d="M953.335,425.9586a15.21394,15.21394,0,1,0,15.21438-15.2159A15.21338,15.21338,0,0,0,953.335,425.9586Z" transform="translate(-212.13887 -275.27244)"/><path class="cls-14" d="M1022.1242,425.9586a15.2152,15.2152,0,1,0,15.216-15.2159A15.2131,15.2131,0,0,0,1022.1242,425.9586Z" transform="translate(-212.13887 -275.27244)"/><path class="cls-13" d="M934.88068,392.0949s2.268,11.3754,7.3962,7.005c5.1302-4.3748,12.3887-62.1454,29.005-59.6773,16.6148,2.468,25.00879,11.8508,40.80952,9.3823,15.8006-2.4681,28.1459-10.1681,33.083-5.5797,4.9386,4.5904,14.269,53.5468,20.7133,54.2518,6.4462.7044,9.8657-3.7028,10.3776-6.9297,0,0,.0174-11.129,3.4733-14.5848,3.4564-3.4579,11.3579-11.8509,5.9264-18.7646-5.4315-6.9123-11.8852-12.8367-9.3997-22.217,2.487-9.3848,1.6279-22.7159-8.0657-27.1596-9.6922-4.4442-15.6186-5.1257-21.543-13.1794-5.9264-8.0522-9.3813-25.829-29.6276-16.9416-20.24343,8.8894-22.09083,11.3559-33.26612,9.3823-11.17288-1.9732-27.4674-10.3682-34.3807,1.9736-6.9117,12.3453-6.1245,21.2352-12.1971,24.689-6.0726,3.4564-9.3997,1.9777-13.1689,12.8407,0,0-1.7915,3.9313,3.64,11.1,5.4305,7.1682-1.3516,17.5383-3.64,22.4769-2.2865,4.9366-5.11918,10.8611,0,16.7895C929.13788,382.8767,934.34888,390.0658,934.88068,392.0949Z" transform="translate(-212.13887 -275.27244)"/><path class="cls-15" d="M1068.1996,307.8213c-6.4977-2.9789-11.2996-4.2746-15.5462-7.228a248.74048,248.74048,0,0,1-51.229,5.1102,243.38555,243.38555,0,0,1-56.641-6.3405c-2.4711,6.9696-3.3856,11.9855-7.5983,14.3822-3.4349,1.9567-5.9897,2.3339-8.2453,4.2532,19.7649,7.2973,45.9057,11.7376,74.57452,11.7376,27.9264,0,53.455-4.2113,73.0264-11.1714C1075.3084,313.9169,1072.7266,309.8967,1068.1996,307.8213Z" transform="translate(-212.13887 -275.27244)"/><path class="cls-4" d="M733.18578,465.3637a210.718,210.718,0,0,1,22.856-21.6722s13.1615-11.1304,11.098-20.3182c-1.1814-5.2603-3.3012-23.0127-5.7752-29.6914,0,0-.7429-15.5283-5.3228-14.6447-4.5784.8875-5.5293,7.4914-5.879,17.4594-.3502,9.9661-1.5885,18.613-8.1884,22.7948-6.6025,4.1842-35.6145-4.5844-43.8662,2.8896-8.2518,7.4765-3.8276,40.553,12.898,43.1827Z" transform="translate(-212.13887 -275.27244)"/><path class="cls-4" d="M747.75008,383.0189s3.7133,36.4765-4.95208,40.3544c0,0-7.70692,5.4026-10.06572-1.1923-3.5497-9.9231-2.0505-29.9145,0-38.7211C734.79618,374.6164,747.38438,378.4964,747.75008,383.0189Z" transform="translate(-212.13887 -275.27244)"/><path class="cls-4" d="M734.13468,383.0189s3.71332,36.4765-4.9521,40.3544c0,0-7.7065,5.4026-10.0648-1.1923-3.5487-9.9231-2.0525-29.9145,0-38.7211C721.18168,374.6164,733.77,378.4964,734.13468,383.0189Z" transform="translate(-212.13887 -275.27244)"/><path class="cls-4" d="M722.17058,383.0189s3.7128,36.4765-4.9511,40.3544c0,0-7.70548,5.4026-10.0643-1.1923-3.55018-9.9231-2.0525-29.9145,0-38.7211C709.21758,374.6164,721.80538,378.4964,722.17058,383.0189Z" transform="translate(-212.13887 -275.27244)"/><path class="cls-4" d="M706.64728,385.2066s6.04372,36.1163-2.35128,40.6233c0,0-7.34132,5.9594-10.11772-.447-4.1768-9.6362-3.9662-29.693-2.484-38.6283C693.186,377.776,705.99278,380.722,706.64728,385.2066Z" transform="translate(-212.13887 -275.27244)"/><path class="cls-12" d="M707.41258,390.5473v32.2598s9.33042,7.1298,15.1845-.6261" transform="translate(-212.13887 -275.27244)"/><path class="cls-12" d="M722.59708,388.4868V422.181s2.5694,5.7787,10.1352,0" transform="translate(-212.13887 -275.27244)"/><path class="cls-12" d="M747.87238,411.6552s-.6187,20.4514-12.947,8.826V390.5473" transform="translate(-212.13887 -275.27244)"/><path class="cls-12" d="M694.17828,425.3829s9.9715,6.789,13.2343-2.5758" transform="translate(-212.13887 -275.27244)"/><path class="cls-12" d="M726.59128,424.7478s-11.2028,10.0199-9.6088,32.1925" transform="translate(-212.13887 -275.27244)"/><rect class="cls-2" x="1011.40493" y="110.78076" width="121.1397" height="28.0935"/><polygon class="cls-2" points="987.704 153.338 987.704 153.338 999.555 153.338 999.555 153.338 999.555 96.318 999.555 96.318 987.704 96.318 987.704 96.318 987.704 153.338"/><path class="cls-3" d="M1002.18983,88.24646h18.4328a7.9,7.9,0,0,1,7.9,7.9v57.361a7.9016,7.9016,0,0,1-7.9016,7.9016h-18.4313a7.9015,7.9015,0,0,1-7.9015-7.9015V96.14806A7.9016,7.9016,0,0,1,1002.18983,88.24646Z"/><polygon class="cls-2" points="1150.978 153.338 1150.978 153.338 1139.128 153.338 1139.128 153.338 1139.128 96.318 1139.128 96.318 1150.978 96.318 1150.978 96.318 1150.978 153.338"/><path class="cls-3" d="M1118.06063,88.24646h18.4348a7.9016,7.9016,0,0,1,7.9016,7.9016v57.3594a7.9016,7.9016,0,0,1-7.9016,7.9016h-18.4348a7.8996,7.8996,0,0,1-7.8996-7.8996V96.14606A7.8996,7.8996,0,0,1,1118.06063,88.24646Z"/><path class="cls-4" d="M1276.7454,465.3637a210.80263,210.80263,0,0,0-22.8566-21.6722s-13.1609-11.1304-11.099-20.3182c1.1824-5.2603,3.3003-23.0127,5.7763-29.6914,0,0,.7424-15.5283,5.3227-14.6447,4.5799.8875,5.5288,7.4914,5.8796,17.4594.3492,9.9661,1.588,18.613,8.1884,22.7948,6.6009,4.1842,35.6149-4.5844,43.8657,2.8896,8.2518,7.4765,3.8271,40.553-12.898,43.1827Z" transform="translate(-212.13887 -275.27244)"/><path class="cls-4" d="M1262.1806,383.0189s-3.7119,36.4765,4.952,40.3544c0,0,7.7075,5.4026,10.0648-1.1923,3.5497-9.9231,2.054-29.9145,0-38.7211C1275.1345,374.6164,1262.5462,378.4964,1262.1806,383.0189Z" transform="translate(-212.13887 -275.27244)"/><path class="cls-4" d="M1275.795,383.0189s-3.7123,36.4765,4.9521,40.3544c0,0,7.7075,5.4026,10.0653-1.1923,3.5491-9.9231,2.0529-29.9145,0-38.7211C1288.7489,374.6164,1276.1607,378.4964,1275.795,383.0189Z" transform="translate(-212.13887 -275.27244)"/><path class="cls-4" d="M1287.7596,383.0189s-3.7123,36.4765,4.9521,40.3544c0,0,7.7055,5.4026,10.0658-1.1923,3.5481-9.9231,2.0505-29.9145,0-38.7211C1300.713,374.6164,1288.1243,378.4964,1287.7596,383.0189Z" transform="translate(-212.13887 -275.27244)"/><path class="cls-4" d="M1303.2829,385.2066s-6.0427,36.1163,2.3518,40.6233c0,0,7.3413,5.9594,10.1176-.447,4.1783-9.6362,3.9668-29.693,2.4831-38.6283C1316.7442,377.776,1303.9384,380.722,1303.2829,385.2066Z" transform="translate(-212.13887 -275.27244)"/><path class="cls-12" d="M1302.5185,390.5473v32.2598s-9.3304,7.1298-15.1844-.6261" transform="translate(-212.13887 -275.27244)"/><path class="cls-12" d="M1287.3341,388.4868V422.181s-2.5694,5.7787-10.1367,0" transform="translate(-212.13887 -275.27244)"/><path class="cls-12" d="M1262.0573,411.6552s.6202,20.4514,12.9485,8.826V390.5473" transform="translate(-212.13887 -275.27244)"/><path class="cls-12" d="M1315.7523,425.3829s-9.9714,6.789-13.2338-2.5758" transform="translate(-212.13887 -275.27244)"/><path class="cls-12" d="M1283.3389,424.7478s11.2037,10.0199,9.6093,32.1925" transform="translate(-212.13887 -275.27244)"/><path class="cls-16" d="M1348.1184,1090.3726s-.7847,2.4142-1.7905,6.4089c-3.1935,12.698-8.62,41.33832,1.7905,59.127,13.6858,23.3874,45.7241,28.9018,50.1299,28.9018s32.1231.5163,44.8171,14.1333c12.6935,13.6169,53.8697-36.7075,35.7517-67.84429-18.1191-31.13633-29.3797-43.35343-29.3797-43.35343Z" transform="translate(-212.13887 -275.27244)"/><path class="cls-4" d="M1470.5712,1203.70862s53.5788-.7035,64.8115,32.8051c37.7502,112.619,60.6592,152.5644,68.5079,187.25728,2.239,9.89822-14.1693,47.44682-23.0686,37.52772-38.8817-43.3254-82.8752-145.6112-93.7921-162.5758C1476.1125,1281.76182,1457.5874,1217.85932,1470.5712,1203.70862Z" transform="translate(-212.13887 -275.27244)"/><path class="cls-4" d="M1551.6439,1412.85112s13.5326,40.7591,29.1781,48.4476c23.0995,11.3579,143.684,22.8925,148.7428,23.4014,5.6545.5657,28.0137-11.53812-.3448-22.5528-69.8219-27.1281-64.8978-25.357-126.4245-47.801C1583.5051,1407.30832,1551.6439,1412.85112,1551.6439,1412.85112Z" transform="translate(-212.13887 -275.27244)"/><path class="cls-4" d="M1716.0302,1475.85612s.7094,5.6874,11.0256,9.0071c10.3163,3.3227,53.475,14.2281,57.7426,11.8564,0,0,6.1654-2.8423,0-7.1124,0,0,12.8048,3.3227,16.1249,1.8979,3.3197-1.4244,6.1654-7.1158,0-9.0107,0,0,18.6499-2.8457,3.6335-12.3303,0,0-17.8606-7.5897-28.77-9.4875,0,0,18.0227-11.8569,5.2175-25.608,0,0-4.743-5.2175-8.5367-3.3227-3.7941,1.8983,3.3192,6.9567,4.2686,11.30508.9484,4.34792-1.9028,11.93412-13.5197,12.40762,0,0-10.193-3.79262-8.7706-9.0071,1.4229-5.218,17.5483-9.3679,14.7016-15.1192,0,0-1.4274-5.2778-5.931-3.8535-4.502,1.4214-4.502,5.218-9.7195,6.6389-5.217,1.4248-35.0956,14.2286-37.4668,23.2392C1713.6589,1466.368,1716.0302,1475.85612,1716.0302,1475.85612Z" transform="translate(-212.13887 -275.27244)"/><line class="cls-17" x1="1569.47453" y1="1213.39087" x2="1543.16163" y2="1204.71207"/><line class="cls-17" x1="1588.78443" y1="1207.22197" x2="1550.55083" y2="1195.51787"/><path class="cls-17" d="M1749.8401,1484.32542s17.3751-18.9083,18.6169-22.1781" transform="translate(-212.13887 -275.27244)"/><path class="cls-17" d="M1714.9865,1465.29692s17.9728-12.3767,31.3777-5.92492" transform="translate(-212.13887 -275.27244)"/><path class="cls-9" d="M1682.9077,1522.99862c-45.7331-.2929-158.0183,38.80089-158.0183,38.80089l-30.0662-30.2882-97.7887,16.67469-87.7658-9.89469-30.0662,30.2882s-129.8545-39.3307-175.5871-39.0374c-11.3315.0744-65.8796-5.27079-66.5666,53.7644-.5423,46.6481,31.8437,88.2942,102.8321,117.1929,0,0,98.7192,44.5657,257.1536,31.1857,158.4344,13.38,255.9617-35.08811,255.9617-35.08811,84.541-21.20369,103.341-73.09069,102.7987-119.73529C1755.1069,1517.82352,1694.2392,1523.07292,1682.9077,1522.99862Z" transform="translate(-212.13887 -275.27244)"/><path class="cls-4" d="M1340.4474,1203.70862s-53.5778-.7035-64.81,32.8051c-37.7507,112.619-60.6592,152.5644-68.5079,187.25728-2.2395,9.89822,14.1673,47.44682,23.0686,37.52772,38.8807-43.3254,82.8752-145.6112,93.7921-162.5758C1334.9071,1281.76182,1353.4322,1217.85932,1340.4474,1203.70862Z" transform="translate(-212.13887 -275.27244)"/><path class="cls-4" d="M1259.3762,1412.85112s-13.5331,40.7591-29.1781,48.4476c-23.0985,11.3579-143.6844,22.8925-148.7428,23.4014-5.6535.5657-28.0137-11.53812.3448-22.5528,69.8214-27.1281,64.8973-25.357,126.425-47.801C1227.516,1407.30832,1259.3762,1412.85112,1259.3762,1412.85112Z" transform="translate(-212.13887 -275.27244)"/><path class="cls-4" d="M1094.99,1475.85612s-.71,5.6874-11.0257,9.0071c-10.3163,3.3227-53.4745,14.2281-57.7431,11.8564,0,0-6.1649-2.8423,0-7.1124,0,0-12.8043,3.3227-16.1249,1.8979-3.3197-1.4244-6.1649-7.1158,0-9.0107,0,0-18.64993-2.8457-3.633-12.3303,0,0,17.8606-7.5897,28.769-9.4875,0,0-18.0217-11.8569-5.217-25.608,0,0,4.743-5.2175,8.5372-3.3227,3.7931,1.8983-3.3197,6.9567-4.2686,11.30508-.9484,4.34792,1.9023,11.93412,13.5187,12.40762,0,0,10.194-3.79262,8.7721-9.0071-1.4228-5.218-17.5488-9.3679-14.702-15.1192,0,0,1.4268-5.2778,5.9299-3.8535,4.5035,1.4214,4.5035,5.218,9.7205,6.6389,5.2165,1.4248,35.0956,14.2286,37.4669,23.2392C1097.3607,1466.368,1094.99,1475.85612,1094.99,1475.85612Z" transform="translate(-212.13887 -275.27244)"/><path class="cls-4" d="M1503.7281,1325.94242c-1.7761-56.3268-18.9687-122.2338-18.9687-122.2338-24.8102-4.302-56.6594-11.1489-56.6594-11.1489l-25.2408-12.8821-38.4617,21.55638a283.32783,283.32783,0,0,0-46.0614,4.86432s-27.2448,54.6729-23.1828,128.0315c.3308,8.0597,20.3651,114.5133,21.1877,123.1707,1.9014,20.0084-5.3147,60.7954-5.3147,60.7954s-2.6522,4.5849-12.5892,31.28839c-3.1222,8.392,58.4565,17.463,106.695,19.1313,48.2221-1.06761,113.2177-9.46661,109.2031-17.3497-8.5861-16.8588-15.6804-31.90009-15.6804-31.90009s-8.9657-46.7753-8.0238-59.6249C1491.5729,1446.79472,1504.2145,1336.15882,1503.7281,1325.94242Z" transform="translate(-212.13887 -275.27244)"/><path class="cls-18" d="M1308.4924,1411.80442H1495.592c3.8396-35.9826,8.4329-79.6258,8.1361-85.862-1.7761-56.3268-18.9687-122.2338-18.9687-122.2338-18.1704-2.962-56.6594-11.1489-56.6594-11.1489l-25.2408-12.8821-38.4617,21.55638s-11.565-1.35-38.1219,3.51732c0,0-35.1843,56.0199-31.1223,129.3785C1295.3504,1338.93022,1302.538,1378.64262,1308.4924,1411.80442Z" transform="translate(-212.13887 -275.27244)"/><path class="cls-4" d="M1681.43,1607.04761s22.6685,50.5225,8.1106,68.7773c0,0-161.4168,43.23309-179.1687,49.596-17.7508,6.3635-76.2093,17.5269-94.4571,19.6796-18.2487,2.1528-38.1348,5.1367-44.2728,12.3373-6.1384,7.2006-19.4231-6.2462-1.9866-16.8443,0,0,2.032-23.0133,29.466-30.5142,27.432-7.5084,34.3043-9.5874,43.3758-17.1377,9.072-7.5513,4.4437-22.6595,29.3787-28.4502,24.9364-5.7828,28.33,10.8954,52.0252,6.6742C1547.5963,1666.95191,1660.0432,1606.72231,1681.43,1607.04761Z" transform="translate(-212.13887 -275.27244)"/><path class="cls-4" d="M1134.1505,1607.04761s-22.6689,50.5225-8.1116,68.7773c0,0,161.4184,43.23309,179.1697,49.596,17.7508,6.3635,76.2099,17.5269,94.4576,19.6796s38.1334,5.1367,44.2723,12.3373,19.4232-6.2462,1.9866-16.8443c0,0-2.0325-23.0133-29.466-30.5142-27.4314-7.5084-34.3038-9.5874-43.3762-17.1377-9.071-7.5513-4.4427-22.6595-29.3777-28.4502-24.936-5.7828-28.33,10.8954-52.0252,6.6742C1267.9842,1666.95191,1155.5374,1606.72231,1134.1505,1607.04761Z" transform="translate(-212.13887 -275.27244)"/><line class="cls-17" x1="817.26733" y1="1213.39087" x2="843.58023" y2="1204.71207"/><line class="cls-17" x1="797.95743" y1="1207.22197" x2="836.19153" y2="1195.51787"/><path class="cls-17" d="M1061.1806,1484.32542s-17.3762-18.9083-18.618-22.1781" transform="translate(-212.13887 -275.27244)"/><path class="cls-17" d="M1096.0327,1465.29692s-17.9724-12.3767-31.3768-5.92492" transform="translate(-212.13887 -275.27244)"/><path class="cls-16" d="M1363.487,980.1294s-9.9106-3.1391-8.7242-12.5633c1.1859-9.4207,9.1189-15.7063,14.262-24.5014s10.1686-13.1929,23.361-13.1929a106.92178,106.92178,0,0,0,16.307,0c10.7059-.6291,14.0834,3.143,20.8759,14.4516,6.7925,11.3045,20.8725,30.7826,5.3512,35.806C1419.3987,985.1563,1363.487,980.1294,1363.487,980.1294Z" transform="translate(-212.13887 -275.27244)"/><path class="cls-4" d="M1425.4947,1119.667H1379.796s-2.6621,68.29682-31.6776,82.42962c0,0-6.0825,78.7253,55.4612,78.7253,49.4803,0,53.5932-82.7514,53.5932-82.7514C1426.5943,1186.41522,1425.4947,1119.667,1425.4947,1119.667Z" transform="translate(-212.13887 -275.27244)"/><path class="cls-11" d="M1379.7761,1120.0951a223.13489,223.13489,0,0,1-4.5106,33.5539l-.0035.02152q-.1818.8322-.3731,1.6758l-.0155.0778c9.1433,7.3458,31.5683,13.7547,57.3714,8.169-6.3734-21.2347-6.7501-43.92612-6.7501-43.92612H1379.796s-.003.0534-.0054.1347C1379.7866,1119.8721,1379.7826,1119.9643,1379.7761,1120.0951Z" transform="translate(-212.13887 -275.27244)"/><path class="cls-4" d="M1339.3513,1068.7803c0,46.3198,33.8712,83.86892,63.2938,83.86892,29.4231,0,63.2929-37.54912,63.2929-83.86892,0-46.3193-16.2656-83.868-63.2929-83.868S1339.3513,1022.461,1339.3513,1068.7803Z" transform="translate(-212.13887 -275.27244)"/><path class="cls-4" d="M1318.9897,1076.4903c2.4002,10.4848,10.7218,17.5268,18.5855,15.7273,7.8636-1.7991,12.2914-11.7611,9.8882-22.2489-2.3992-10.4889-10.7214-17.5304-18.584-15.7308C1321.0152,1056.0369,1316.588,1065.9984,1318.9897,1076.4903Z" transform="translate(-212.13887 -275.27244)"/><path class="cls-4" d="M1486.3015,1076.4903c-2.4012,10.4848-10.7228,17.5268-18.586,15.7273-7.8641-1.7991-12.2913-11.7611-9.8896-22.2489,2.4017-10.4889,10.7228-17.5304,18.5855-15.7308C1484.275,1056.0369,1488.7027,1065.9984,1486.3015,1076.4903Z" transform="translate(-212.13887 -275.27244)"/><path class="cls-19" d="M1478.8171,1060.6148s-8.7971-2.047-14.4492,21.3584" transform="translate(-212.13887 -275.27244)"/><path class="cls-19" d="M1326.788,1060.6148s8.7971-2.047,14.4496,21.3584" transform="translate(-212.13887 -275.27244)"/><path class="cls-20" d="M1382.299,1049.9957a15.95178,15.95178,0,0,0-5.0354-2.25,15.721,15.721,0,0,0-5.7902-.442,16.68068,16.68068,0,0,0-5.7613,1.6892,24.73788,24.73788,0,0,0-5.213,3.5018l-.0394.0319a.72414.72414,0,0,1-1.0058-1.0352,26.63518,26.63518,0,0,1,4.9745-4.6542,19.99417,19.99417,0,0,1,13.5881-3.6614,20.79448,20.79448,0,0,1,7.2834,1.9831,2.8616,2.8616,0,0,1-2.4745,5.1606,3.06477,3.06477,0,0,1-.4191-.2449Z" transform="translate(-212.13887 -275.27244)"/><path class="cls-20" d="M1420.7422,1045.0067a22.20884,22.20884,0,0,1,7.1836-1.2148,24.36876,24.36876,0,0,1,13.1156,3.5761,29.35206,29.35206,0,0,1,5.2105,4.071.72526.72526,0,0,1-.8965,1.134l-.0389-.0269a27.29845,27.29845,0,0,0-5.4006-2.933,20.783,20.783,0,0,0-5.7783-1.4384,19.851,19.851,0,0,0-5.7927.23,17.43851,17.43851,0,0,0-5.1621,1.7442l-.0853.0474a2.86141,2.86141,0,0,1-2.8258-4.9765A3.04022,3.04022,0,0,1,1420.7422,1045.0067Z" transform="translate(-212.13887 -275.27244)"/><path class="cls-19" d="M1419.1362,1053.958s-9.4237,9.4037-6.8324,32.2538c0,0,5.8107,14.6741-5.2619,16.3599-6.804,1.0392-8.7936-.9189-8.7936-.9189" transform="translate(-212.13887 -275.27244)"/><path class="cls-21" d="M1421.727,1110.0587s-19.0819,5.193-38.1638,0C1383.5632,1110.0587,1400.7718,1140.86322,1421.727,1110.0587Z" transform="translate(-212.13887 -275.27244)"/><path class="cls-14" d="M1354.7628,1087.7459a14.5182,14.5182,0,1,0,14.5179-14.5184A14.51933,14.51933,0,0,0,1354.7628,1087.7459Z" transform="translate(-212.13887 -275.27244)"/><path class="cls-14" d="M1420.4029,1087.7459a14.51725,14.51725,0,1,0,14.517-14.5184A14.51792,14.51792,0,0,0,1420.4029,1087.7459Z" transform="translate(-212.13887 -275.27244)"/><path class="cls-20" d="M1341.0884,1058.2849s.455,35.7003,7.03,43.6363c0,0-.4824-26.774-3.5157-43.6363,0,0,9.2885-13.4468,10.1601-24.7558.872-11.3086,6.314-32.9818,19.6117-32.0373,13.2992.9399,29.3712,12.1881,59.4992-.029,0,0,12.3074,8.5092,15.5637,35.8349,0,0,11.526,16.2083,14.9305,20.8246,0,0-8.5182,21.1254-7.1956,34.3786,0,0,9.4452-18.7536,10.9653-34.4704l4.0441-3.9378s13.8245-91.2392-68.3233-94.067c0,0-83.616-2.1846-70.6311,94.0845Z" transform="translate(-212.13887 -275.27244)"/><path class="cls-22" d="M1459.8763,988.2954c-28.9261,3.7008-73.7043,6.6174-113.0216-2.7609a61.628,61.628,0,0,0-7.0539,11.1284,171.17857,171.17857,0,0,0,24.9869,8.8375,11.86879,11.86879,0,0,1,9.5868-4.0086c13.2992.9399,29.3712,12.1881,59.4992-.029a26.47158,26.47158,0,0,1,5.9963,6.7985,171.47657,171.47657,0,0,0,26.4401-7.4341A70.6564,70.6564,0,0,0,1459.8763,988.2954Z" transform="translate(-212.13887 -275.27244)"/><path class="cls-21" d="M1295.6921,1338.54512c1.798,12.21,7.7439,45.0925,12.8003,73.2593H1495.592c2.5484-23.8788,5.4266-51.1197,6.9896-68.5757C1400.1037,1413.88332,1323.4883,1363.14182,1295.6921,1338.54512Z" transform="translate(-212.13887 -275.27244)"/><path class="cls-23" d="M1381.3616,1064.0861s2.0984,9.7001-8.0952,9.7001c-8.7437,0-7.8362-9.7001-7.8362-9.7001" transform="translate(-212.13887 -275.27244)"/><path class="cls-23" d="M1437.6863,1064.0861s2.0979,9.7001-8.0951,9.7001c-8.7437,0-7.8362-9.7001-7.8362-9.7001" transform="translate(-212.13887 -275.27244)"/><path class="cls-24" d="M545.33969,1304.89332s-4.8243,101.9301,0,113.9915,36.0934-1.5985,36.0934-1.5985v-107.5666Z" transform="translate(-212.13887 -275.27244)"/><path class="cls-25" d="M594.08368,1232.90412s-31.85619-3.4004-43.61729,18.9173c-11.7605,22.3143-11.7605,55.7874-11.7605,55.7874l55.98989-6.333Z" transform="translate(-212.13887 -275.27244)"/><path class="cls-9" d="M944.09138,1537.14541c-43.9056-.28141-151.7053,37.2508-151.7053,37.2508l-28.8653-29.0819-93.88278,16.0122-84.25961-9.49951-28.8653,29.07831s-124.667-37.7597-168.57309-37.4778c-10.879.0678-63.24791-5.0603-63.907,51.6166-.52081,44.7812,30.57159,84.767,98.72519,112.5113,0,0,94.7744,42.786,246.87981,29.9404,152.10638,12.8456,245.73678-33.6872,245.73678-33.6872,81.16439-20.3561,99.21362-70.1707,98.69272-114.9513C1013.407,1532.17681,954.97088,1537.21321,944.09138,1537.14541Z" transform="translate(-212.13887 -275.27244)"/><path class="cls-25" d="M772.07,1347.96082c-1.70532-54.0767-18.21042-117.3511-18.21042-117.3511-23.8199-4.1299-54.3969-10.7039-54.3969-10.7039l-24.2326-12.3667-36.925,20.69188a271.83438,271.83438,0,0,0-44.2214,4.67312s-26.15629,52.4887-22.25689,122.9168c.3173,7.738,19.5518,109.9395,20.3416,118.24708,1.826,19.21262-5.1022,58.37021-5.1022,58.37021s-2.5464,4.40179-12.0864,30.03879c-2.9979,8.05671,56.12169,16.76551,102.43249,18.36691,46.2959-1.0247,108.6952-9.0884,104.8412-16.6562-8.2433-16.1853-15.0543-30.6259-15.0543-30.6259s-8.6085-44.91039-7.7035-57.24319C760.40068,1463.98532,772.53688,1357.76912,772.07,1347.96082Z" transform="translate(-212.13887 -275.27244)"/><path class="cls-26" d="M764.25918,1430.39292c3.6859-34.5488,8.0956-76.4453,7.81082-82.4321-1.70532-54.0767-18.21042-117.3511-18.21042-117.3511-17.445-2.84372-54.3969-10.7039-54.3969-10.7039l-24.2326-12.3667-36.925,20.69188s-11.1035-1.29318-36.5992,3.38c0,0-33.77849,53.78182-29.87909,124.20992.1891,4.6089,7.0898,42.7352,12.8077,74.572,0,0-13.134,10.9419,2.4342,13.589s32.45479-8.6778,45.12089,0c12.6661,8.6784,61.5188,11.091,82.6287,4.4562,21.1094-6.6314,38.5255-5.24,48.2121-6.5396C763.03038,1441.89852,772.68858,1440.08952,764.25918,1430.39292Z" transform="translate(-212.13887 -275.27244)"/><path class="cls-27" d="M571.54939,1347.97482c43.07149-1.3072,137.73861-18.3506,156.43679-12.8153,14.2745,4.2252,31.8832,17.926,43.13682,27.65948.66508-7.58828,1.03728-12.98438.947-14.85818-.76542-24.2889-4.51862-50.4317-8.419-71.8669l-186.34481,10.4055C572.93829,1303.57672,571.17869,1326.11852,571.54939,1347.97482Z" transform="translate(-212.13887 -275.27244)"/><path class="cls-25" d="M942.67348,1617.83681s21.76352,48.5045,7.7868,66.0298c0,0-154.9695,41.50639-172.0119,47.615-17.0419,6.1095-73.1651,16.8268-90.68438,18.8938-17.51942,2.0664-36.61022,4.9311-42.50372,11.8408-5.8935,6.9163-18.6474-5.99321-1.90728-16.1683,0,0,1.94968-22.0937,28.28908-29.2983,26.3363-7.20561,32.9338-9.2007,41.6431-16.4502,8.7093-7.249,4.2651-21.754,28.2052-27.3133,23.9397-5.5557,27.1975,10.45989,49.9463,6.40789C814.18548,1675.34841,922.14078,1617.52451,942.67348,1617.83681Z" transform="translate(-212.13887 -275.27244)"/><path class="cls-25" d="M417.25579,1617.83681s-21.7634,48.5045-7.78779,66.0298c0,0,154.97059,41.50639,172.01249,47.615,17.04189,6.1095,73.16559,16.8268,90.68439,18.8938,17.5188,2.0664,36.6097,4.9311,42.5042,11.8408,5.893,6.9163,18.64692-5.99321,1.9068-16.1683,0,0-1.9507-22.0937-28.2886-29.2983-26.3359-7.20561-32.9338-9.2007-41.6431-16.4502-8.7093-7.249-4.2661-21.754-28.2048-27.3133-23.9401-5.5557-27.19838,10.45989-49.94679,6.40789C545.74279,1675.34841,437.788,1617.52451,417.25579,1617.83681Z" transform="translate(-212.13887 -275.27244)"/><path class="cls-16" d="M634.67258,1146.69142s-17.877,7.3607-24.9265,0c-7.0509-7.3613-4.0515-12.4725-15.0503-15.34369-10.99919-2.8781-20.04519-5.0024-20.04519-12.53333s2.713-13.1715,0-17.1352c-2.7141-3.9673-12.6661-5.9189-9.0471-14.8921,3.61851-8.9767,12.6656-9.6523,8.1426-16.1-4.52409-6.4483-12.4226-13.7826-8.9259-20.9708,3.4973-7.1916,16.1629-9.3294,12.5434-18.2113-3.6175-8.8814-15.3791-14.4371-3.6175-25.2293,11.76-10.7922,16.2835-8.7966,17.189-17.0334.904-8.2334-1.3385-21.8054,8.37749-21.8054,9.7151,0,7.8333.906,17.3687,0,9.5365-.903,22.43-20.8071,31.8153-18.9986,9.3843,1.809,21.9611,15.3811,24.7205,10.8571,2.7584-4.5241,12.74392-16.5176,23.1304-10.9723s2.9251,8.2572,10.2749,9.1632c7.3502.9065,24.7658-7.239,28.27162-2.715,3.50428,4.5241-4.10792,9.9541,1.50718,13.5716,5.6161,3.618,14.6631-7.239,16.4726,2.7155,1.809,9.9505-6.333,15.5637,0,18.1839,6.332,2.6197,21.7121,11.542,19.9031,17.0334-1.81,5.4914-9.047,10.7074-4.5235,14.8852s17.3612,4.3678,15.4659,12.8661c-1.8954,8.4977-9.1334,6.5939-5.5149,15.6893,3.6195,9.0955,16.2851,13.847,9.95262,20.9708-6.33312,7.1233-14.47562,6.6957-10.85712,12.3363,3.6185,5.644,11.9337,11.746,6.4194,17.2913-5.5149,5.5388-16.3709,5.1521-13.6564,11.6817,2.714,6.5226,3.6185,29.234-4.524,30.09312-8.1421.8581-10.02388-7.4191-16.774.7903-6.7476,8.2099-2.5993,21.6527-12.3637,18.5506-9.764-3.1017-32.4355-15.02742-43.7176-9.068C681.40248,1158.32872,634.67258,1146.69142,634.67258,1146.69142Z" transform="translate(-212.13887 -275.27244)"/><path class="cls-25" d="M698.73828,1143.52142h-43.8732s-3.7208,71.9183-31.5779,85.4903c0,0,0,89.9526,57.116,87.3428,44.7992,0,44.7992-91.4123,44.7992-91.4123C697.34628,1211.37372,698.73828,1143.52142,698.73828,1143.52142Z" transform="translate(-212.13887 -275.27244)"/><path class="cls-28" d="M704.92858,1194.41862c-4.4177-20.9777-6.1903-50.8972-6.1903-50.8972h-43.8732s-2.47608,18.8564-4.97308,35.9711C658.41318,1186.755,679.48128,1200.08612,704.92858,1194.41862Z" transform="translate(-212.13887 -275.27244)"/><path class="cls-25" d="M614.87228,1094.6677c0,44.46882,32.5168,80.51782,60.7644,80.51782,28.2482,0,60.7645-36.049,60.7645-80.51782,0-44.4659-15.6166-80.5149-60.7635-80.5149C630.48888,1014.1528,614.87228,1050.2018,614.87228,1094.6677Z" transform="translate(-212.13887 -275.27244)"/><path class="cls-25" d="M595.32288,1102.0693c2.3055,10.0693,10.2943,16.8299,17.8432,15.0992,7.5493-1.7242,11.79992-11.2881,9.495-21.3609-2.3054-10.0657-10.2943-16.8298-17.8436-15.1021C597.26768,1082.4362,593.01749,1092,595.32288,1102.0693Z" transform="translate(-212.13887 -275.27244)"/><path class="cls-25" d="M755.951,1102.0693c-2.30492,10.0693-10.29332,16.8299-17.84312,15.0992-7.5488-1.7242-11.8-11.2881-9.4946-21.3609,2.305-10.0657,10.2943-16.8298,17.84372-15.1021C754.00628,1082.4362,758.25738,1092,755.951,1102.0693Z" transform="translate(-212.13887 -275.27244)"/><path class="cls-29" d="M748.76488,1086.828s-8.44488-1.9652-13.87088,20.5052" transform="translate(-212.13887 -275.27244)"/><path class="cls-29" d="M602.80938,1086.828s8.4459-1.9652,13.8719,20.5052" transform="translate(-212.13887 -275.27244)"/><path class="cls-16" d="M656.54938,1075.915a16.39506,16.39506,0,0,0-5.1766-2.0684,15.65422,15.65422,0,0,0-5.7444-.213,16.37806,16.37806,0,0,0-5.5567,1.8549,23.89617,23.89617,0,0,0-4.8962,3.5432l-.0364.0319a.69567.69567,0,0,1-.9699-.9953,25.695,25.695,0,0,1,4.8843-4.2861,18.80851,18.80851,0,0,1,12.8356-3.0707,19.54308,19.54308,0,0,1,6.6504,1.9961,1.89209,1.89209,0,0,1-1.7153,3.3731c-.0533-.028-.1067-.0589-.1581-.0903Z" transform="translate(-212.13887 -275.27244)"/><path class="cls-16" d="M693.27478,1072.3958a21.10172,21.10172,0,0,1,6.6748-1.2602,22.63293,22.63293,0,0,1,6.5141.683,25.235,25.235,0,0,1,11.0377,6.1998.69633.69633,0,0,1-.8966,1.0632,23.12194,23.12194,0,0,0-10.6749-4.4981,19.45543,19.45543,0,0,0-5.6635.0648,17.60467,17.60467,0,0,0-5.1741,1.5786l-.1122.0568a2.12674,2.12674,0,0,1-1.9443-3.7831C693.11168,1072.4632,693.197,1072.4252,693.27478,1072.3958Z" transform="translate(-212.13887 -275.27244)"/><path class="cls-30" d="M643.359,1091.9217a5.13739,5.13739,0,1,0,5.13758-5.1346A5.13874,5.13874,0,0,0,643.359,1091.9217Z" transform="translate(-212.13887 -275.27244)"/><path class="cls-30" d="M696.34748,1091.9217a5.13745,5.13745,0,1,0,5.1367-5.1346A5.13831,5.13831,0,0,0,696.34748,1091.9217Z" transform="translate(-212.13887 -275.27244)"/><path class="cls-29" d="M684.32558,1084.4283c-3.0373,3.8315-5.7294,15.5302-2.3628,23.8753,0,0,6.2826,14.72253.0544,23.04413" transform="translate(-212.13887 -275.27244)"/><path class="cls-29" d="M689.07308,1141.55622s-12.2714,5.5049-24.5419.6381" transform="translate(-212.13887 -275.27244)"/><path class="cls-31" d="M629.66768,1112.8785a13.938,13.938,0,1,0,13.9372-13.9418A13.93495,13.93495,0,0,0,629.66768,1112.8785Z" transform="translate(-212.13887 -275.27244)"/><path class="cls-31" d="M692.68358,1112.8785a13.9385,13.9385,0,1,0,13.9388-13.9418A13.93663,13.93663,0,0,0,692.68358,1112.8785Z" transform="translate(-212.13887 -275.27244)"/><path class="cls-16" d="M604.81748,1080.7055s15.5407,9.5978,18.4697-.2684c0,0,.1332-29.8651,7.5394-38.8623,7.4072-9.0001,22.8072,1.5406,39.72042,1.5406,19.18708,0,36.27538-5.4809,41.47548-9.0884,0,0,11.74552,15.859,13.1799,25.7521,1.4348,9.8897,3.7602,26.0306,7.5733,27.008l9.0535-5.4266s5.74082-86.783-68.5054-84.971C673.32378,996.3895,599.07668,999.6408,604.81748,1080.7055Z" transform="translate(-212.13887 -275.27244)"/><path class="cls-32" d="M604.81748,1080.7055s-11.64029-77.5624,75.5857-71.5621c0,0,56.99082-4.4457,61.52982,66.5292,0,0,4.535-1.4833,6.83188-8.7193,2.2994-7.2355-.706-84.9466-73.1282-84.1353,0,0-83.77459-7.7889-80.9409,89.1448C594.69578,1071.9628,596.98678,1083.6036,604.81748,1080.7055Z" transform="translate(-212.13887 -275.27244)"/><path class="cls-33" d="M753.85958,1230.60972s-66.0891,9.5639-89.3284,17.7025c-23.24018,8.145-183.36039,20.356-215.92849,27.1436,0,0-100.4145,16.28-104.485,18.995-4.071,2.7116-10.856,18.1365,0,21.9616,10.8546,3.8211,244.3354,2.9595,270.75459,0,26.41872-2.9665,130.546-4.1269,156.0971-24.6731C796.52048,1271.18972,782.92348,1225.99792,753.85958,1230.60972Z" transform="translate(-212.13887 -275.27244)"/><path class="cls-33" d="M348.72109,1317.07742s-6.6339,3.0069-24.1253-.665c-17.4894-3.67542-59.1051-38.055-60.9151-48.9116,0,0-3.6175-4.2222,3.0158-4.2222,0,0-8.0013-7.8397-4.0006-11.4572a5.40788,5.40788,0,0,1,7.6202,0s-7.8407-9.6522-1.81-10.857c6.0316-1.20442,9.6492,4.8223,9.6492,4.8223s-7.8392-9.044-2.4117-11.4572c5.428-2.4132,30.7596,24.1233,34.3781,25.9353,0,0-1.6254-12.8252,4.8244-10.8566,3.3905,1.0352,5.4285,11.45778,10.8565,21.1095,5.4286,9.6487,22.9185,22.5791,22.9185,22.5791Z" transform="translate(-212.13887 -275.27244)"/><path class="cls-29" d="M270.31609,1265.09112s21.4102,22.6161,30.7586,26.5365" transform="translate(-212.13887 -275.27244)"/><path class="cls-29" d="M270.31609,1251.82142s22.3142,18.6114,31.96491,24.3847" transform="translate(-212.13887 -275.27244)"/><path class="cls-29" d="M278.15529,1245.78672s25.6334,20.5058,29.8556,22.3178" transform="translate(-212.13887 -275.27244)"/><line class="cls-29" x1="100.09373" y1="986.19718" x2="111.85523" y2="997.05428"/><path class="cls-25" d="M505.55749,1309.01372s-5.7932-.2749-2.2026,4.7919c3.5905,5.0639,9.489,6.3056,18.3505,12.3603,0,0,6.8369,11.0097,8.0961,16.9386,1.2577,5.9289-.4924,65.962,3.0917,76.4862,3.5856,10.52728,15.49181,24.9924,27.28381,21.8768,11.79249-3.1157,20.49329-11.356,21.25609-24.1812.7633-12.8252-27.0872-62.87032-27.0743-79.0211,0,0,8.6968-17.7124,9.759-22.7558,1.06221-5.04642,2.0909-34.888-3.2344-36.1238-5.3257-1.2353-3.9522,22.2773-5.92139,26.4377l-3.834,3.7602s-.56331-32.7024-5.95941-32.1087c-5.39659.5907-2.7629,30.03218-3.6325,33.1613,0,0-3.0278-33.0356-7.7579-31.90912-4.7305,1.12712-2.0145,29.34332-1.2287,34.71892,0,0-7.061-28.2092-10.3667-29.8042-2.5623-1.2358-5.217-3.3122.9335,30.5371C523.11629,1314.17882,507.02379,1308.54872,505.55749,1309.01372Z" transform="translate(-212.13887 -275.27244)"/></svg>